<?xml version="1.0" standalone="no"?>
<!DOCTYPE svg PUBLIC "-//W3C//DTD SVG 1.1//EN" "http://www.w3.org/Graphics/SVG/1.1/DTD/svg11.dtd" >
<svg xmlns="http://www.w3.org/2000/svg">
<metadata></metadata>
<defs>
<font id="futura_bqregular" horiz-adv-x="1067" >
<font-face units-per-em="2048" ascent="1638" descent="-410" />
<missing-glyph horiz-adv-x="555" />
<glyph horiz-adv-x="2048" />
<glyph horiz-adv-x="2048" />
<glyph unicode="&#xd;" horiz-adv-x="2048" />
<glyph unicode=" "  horiz-adv-x="555" />
<glyph unicode="&#x09;" horiz-adv-x="555" />
<glyph unicode="&#xa0;" horiz-adv-x="555" />
<glyph unicode="!" horiz-adv-x="512" d="M170 121q0 54 41 94t96 39q55 0 95 -40.5t40 -94.5q0 -57 -41 -97t-98 -40q-55 3 -94 44t-39 95zM229 377v1069h162v-1069h-162z" />
<glyph unicode="&#x22;" horiz-adv-x="811" d="M109 1391q-4 42 0 65q9 37 40 57.5t70 20.5q32 0 59.5 -17t36.5 -47q7 -26 4 -55l-83 -526h-48zM494 1391q-6 42 0 65q9 37 39 57.5t69 20.5q33 0 61 -17.5t37 -46.5q5 -21 2 -55l-81 -526h-48z" />
<glyph unicode="#" horiz-adv-x="1366" d="M86 469v158h305l33 221h-291v158h311l64 438h164l-64 -438h226l65 438h160l-62 -438h283v-158h-303l-33 -221h285v-158h-307l-68 -469h-162l68 469h-228l-67 -469h-166l72 469h-285zM553 627h229l31 221h-227z" />
<glyph unicode="$" horiz-adv-x="894" d="M29 270l164 72q25 -78 46 -115t56 -65q30 -24 51 -29q23 -6 57 -10v559q-53 27 -102 57l-28.5 19t-33 23.5t-38.5 32.5t-35.5 38t-35.5 48.5t-27 56t-20.5 68.5t-6.5 77q0 111 49.5 199.5t144.5 132.5q32 15 56.5 22t76.5 14v201h107v-201q104 -6 176 -55 q84 -55 152 -196l-150 -80q-23 60 -55 100q-29 38 -64 57q-18 9 -59 19v-494q154 -94 209 -143q139 -128 139 -307q0 -167 -108 -285q-48 -50 -109 -82q-53 -23 -131 -29v-235h-107v235q-51 0 -94 9q-75 18 -138 69.5t-101 120.5q-18 34 -41 96zM246 1120q0 -40 14 -86 q12 -33 31 -59.5t44 -46.5t35.5 -27t32.5 -20v438q-1 -1 -12 -3.5t-26 -7t-25 -8.5q-31 -16 -52 -43.5t-29 -57.5t-10.5 -47.5t-2.5 -31.5zM510 127q22 3 34 6t34 16t43 37q63 71 63 176q0 116 -88 193q-27 23 -86 59v-487z" />
<glyph unicode="%" horiz-adv-x="1622" d="M63 979q0 485 287 485q91 0 146 -51q65 -54 95 -154.5t30 -269.5q0 -7 -1.5 -23t-1.5 -24q-8 -246 -116 -354q-61 -64 -164 -64q-108 0 -172 74q-61 69 -82 165t-21 216zM201 993q0 -101 16 -202q18 -105 72 -134q26 -16 55 -16q38 2 69.5 28.5t45.5 86.5q24 105 24 250 q0 97 -16 198q-18 99 -68 129q-34 19 -59 19q-26 0 -54 -17.5t-48 -58.5q-15 -35 -26 -114t-11 -169zM383 -25l760 1536l94 -47l-760 -1534zM1001 436q0 273 97 398q69 88 190 88q91 0 154 -58q51 -45 78.5 -124t33 -141t5.5 -148q0 -209 -64 -330q-25 -50 -61 -84 q-59 -55 -156 -55q-42 0 -76 9.5t-57 27.5t-36 32t-26 33q-82 120 -82 352zM1141 453q0 -122 16 -203q15 -105 72 -137q1 0 8.5 -3.5t12.5 -5.5t14.5 -3.5t19.5 -0.5q25 0 53 17q39 24 56 80q30 88 30 264q0 104 -18 201q-15 95 -64 126q-27 21 -61 21q-64 0 -96 -64 q-23 -42 -33 -129.5t-10 -162.5z" />
<glyph unicode="&#x26;" horiz-adv-x="1280" d="M86 387q0 189 147 336q62 67 154 115q-16 18 -39 49q-106 139 -106 276q0 74 26 131q38 81 123.5 125.5t179.5 44.5q64 0 123 -20q94 -33 151.5 -109t57.5 -174q0 -57 -33 -139q-18 -38 -46 -74t-49.5 -57.5t-56.5 -47.5t-43.5 -31t-33.5 -21l293 -361q15 16 104 121 q56 73 82 104l119 -118q-72 -92 -88 -111q-44 -56 -113 -129l242 -297h-217l-143 176q-75 -68 -136 -108q-141 -86 -288 -86q-170 0 -290 116.5t-120 288.5zM260 408q0 -37 16 -84q27 -81 88 -130t146 -49t184 64q19 10 66 47q20 15 51 51l-319 400q-72 -35 -134 -97 q-96 -96 -98 -202zM418 1153q0 -29 12 -66q10 -31 38 -74.5t47 -68t24 -29.5q37 15 92 62q98 88 98 182q0 33 -12 60q-13 32 -48.5 62t-93.5 30q-65 0 -111 -45.5t-46 -112.5z" />
<glyph unicode="'" horiz-adv-x="425" d="M109 1391q-4 42 0 65q9 37 40 57.5t70 20.5q32 0 59.5 -17t36.5 -47q7 -26 4 -55l-83 -526h-48z" />
<glyph unicode="(" horiz-adv-x="468" d="M109 549q0 398 139 770q37 98 90 211l121 -51q-82 -179 -129 -361q-22 -83 -34.5 -137.5t-28 -175.5t-15.5 -244q0 -127 15 -249t33.5 -203.5t52.5 -177.5t52.5 -137.5t53.5 -117.5l-123 -63q-40 77 -47 94q-37 77 -68 164q-112 309 -112 678z" />
<glyph unicode=")" horiz-adv-x="468" d="M12 -338q79 180 125 348q42 157 61 287.5t19 284.5q0 143 -16 270q-7 54 -18 108.5t-21.5 97.5t-26 92.5t-26 80t-28.5 74.5t-25.5 61t-24.5 55.5t-19 42.5l115 74q36 -70 60 -121.5t60 -148.5t58 -188.5t38.5 -220.5t16.5 -265q0 -418 -151 -809q-34 -83 -82 -184z" />
<glyph unicode="*" horiz-adv-x="894" d="M111 989l233 129l-233 129l59 99l221 -134v256h113v-256l223 134l59 -99l-233 -129l233 -129l-59 -96l-223 131v-260h-113v260l-221 -131z" />
<glyph unicode="+" horiz-adv-x="1366" d="M88 514v164h510v510h164v-510h516v-164h-516v-514h-164v514h-510z" />
<glyph unicode="," horiz-adv-x="425" d="M12 -262l201 512l162 -64l-238 -501z" />
<glyph unicode="-" horiz-adv-x="681" d="M84 492v145h514v-145h-514z" />
<glyph unicode="." horiz-adv-x="425" d="M80 111q0 56 39 93.5t94 37.5q57 0 96 -39.5t39 -96.5q0 -58 -39.5 -95.5t-97.5 -35.5q-54 2 -93 41t-38 95z" />
<glyph unicode="/" horiz-adv-x="1024" d="M27 0l643 1446h157l-643 -1446h-157z" />
<glyph unicode="0" horiz-adv-x="1024" d="M72 678q0 289 53 469q28 89 76 160q112 163 319 163q161 0 266 -110q47 -47 80 -119q86 -181 86 -508q0 -369 -110 -559q-122 -199 -332 -199q-157 0 -266 113q-172 180 -172 590zM260 739q0 -358 76 -495q63 -109 176 -109q41 0 84 23q110 57 137 225q27 132 27 348 q0 435 -115 539q-49 47 -135 47q-145 0 -203 -166q-47 -139 -47 -412z" />
<glyph unicode="1" horiz-adv-x="1024" d="M178 1276l72 170h389v-1446h-172v1276h-289z" />
<glyph unicode="2" horiz-adv-x="1024" d="M92 985q-8 162 51 279q35 68 89 113.5t113 63.5t96.5 23.5t74.5 5.5q185 0 300.5 -117t115.5 -302q0 -110 -43 -220q-44 -117 -133 -236.5t-299 -361.5l-54 -61h504v-172h-809v39q64 79 191 235.5t190 235.5q56 69 92.5 120t84 128t72 152t24.5 145q0 109 -66 176 t-176 67q-116 0 -180 -75q-24 -27 -41 -68q-11 -31 -14 -63t-5 -109z" />
<glyph unicode="3" horiz-adv-x="1024" d="M61 375h177q5 -49 14 -76q6 -19 14.5 -38t27.5 -44t43 -43.5t62 -31.5t84 -13q100 0 168 51q54 40 81.5 101t27.5 131q0 87 -45.5 155t-126.5 95q-40 12 -101 12q-28 0 -90 -4v161q37 0 72.5 -1t75.5 6t69 22q43 22 72 74t29 137q0 142 -74 205q-57 49 -149 49 q-101 0 -158 -57q-42 -45 -53 -95q-11 -43 -7 -98h-168q-1 24 1 50.5t9.5 70.5t31 90.5t59.5 83.5q57 57 126 79.5t159 22.5q94 0 161 -22q122 -40 183 -137.5t61 -229.5q0 -182 -111 -274q-34 -29 -94 -51q41 -14 80 -35q81 -49 123.5 -135.5t42.5 -184.5q0 -93 -33 -172 q-14 -33 -34 -64t-56 -66.5t-80 -62t-109 -44t-141 -17.5q-27 0 -57 3t-83.5 16.5t-97.5 37t-88.5 70.5t-68.5 111q-20 53 -29 162z" />
<glyph unicode="4" horiz-adv-x="1024" d="M2 313l750 1170h49v-1020h178v-150h-178v-313h-168v313h-631zM276 463h355l6 242q0 204 8 368q-81 -147 -133 -231q-47 -78 -117 -187z" />
<glyph unicode="5" horiz-adv-x="1024" d="M25 219l147 100q31 -51 47 -67q52 -61 119.5 -85t116.5 -24q42 0 92 17q34 12 65 34t61 58.5t48 95t18 131.5q0 79 -24 140t-59 95t-80 56.5t-81 29.5t-69 7q-101 0 -209 -57q-19 -10 -38 -24.5t-23 -16.5l-27 10l180 727h598v-170h-471l-80 -336q78 23 140 23 q96 0 180 -41q122 -59 184 -176.5t62 -258.5q0 -263 -187 -413q-118 -99 -289 -99q-169 0 -301 107q-52 44 -82 82q-9 12 -38 55z" />
<glyph unicode="6" horiz-adv-x="1024" d="M66 434q0 104 34 203q31 86 92 183.5t187 269.5l285 380l135 -92l-113 -153q-212 -273 -328 -434q98 61 205 61q85 0 158 -31q116 -51 176.5 -157.5t60.5 -237.5q0 -95 -30 -176q-50 -130 -160 -202.5t-250 -72.5q-101 0 -190 39q-32 14 -63 33t-68.5 55t-65 80 t-46.5 110t-19 142zM238 414q0 -64 22 -113q32 -75 102.5 -118.5t153.5 -43.5q124 0 198 83t74 208q0 121 -77 198t-199 77t-198 -83.5t-76 -207.5z" />
<glyph unicode="7" horiz-adv-x="1024" d="M33 37l667 1229h-620v180h893v-25l-770 -1464z" />
<glyph unicode="8" horiz-adv-x="1024" d="M84 389q0 147 84 254q25 37 70 72q33 23 69 39q-23 12 -55 37q-89 74 -119 184q-12 50 -12 100q0 89 26 156q41 115 143 177t228 62t217 -59q28 -18 52.5 -41.5t52.5 -61.5t44.5 -94t16.5 -122q0 -25 -3.5 -52.5t-13.5 -70.5t-36 -87t-64 -79q-25 -22 -65 -47 q54 -30 94 -66q127 -109 127 -295q0 -87 -34 -170.5t-97 -140.5q-58 -54 -145 -84q-78 -25 -156 -25q-107 0 -205 48q-57 28 -99.5 69t-64.5 80t-35.5 84.5t-16.5 75t-3 57.5zM260 399q0 -55 16 -98q16 -49 47 -82.5t67.5 -48.5t62.5 -20.5t53 -6.5q114 -3 186 66 q78 72 78 192q0 65 -25 115q-19 45 -51.5 77.5t-68 47.5t-62.5 21t-49 6q-48 0 -98 -21t-84 -55.5t-48 -73t-19 -66t-5 -53.5zM287 1079q0 -21 3.5 -42.5t13.5 -54t35 -63t62 -51.5q44 -28 107 -30q44 0 92 20q45 20 75.5 52t43 68t16.5 60.5t4 48.5q0 55 -18 101 q-16 43 -44.5 73t-60.5 42.5t-55.5 17t-44.5 4.5q-52 0 -113 -27q-37 -20 -62.5 -51.5t-36 -66t-14 -58t-3.5 -43.5z" />
<glyph unicode="9" horiz-adv-x="1024" d="M66 1020q0 101 38 192q52 122 160.5 190t243.5 68q88 0 174 -32q131 -52 203.5 -165t72.5 -257q0 -98 -34 -199q-10 -28 -25 -60.5t-27.5 -57.5t-35.5 -63.5t-34.5 -57t-41 -62t-36.5 -54t-40 -57t-35 -49.5l-284 -381l-136 95l113 149q41 55 152 204.5t172 229.5 l-21 -11q-21 -12 -26.5 -14.5t-26.5 -11t-35.5 -11.5t-38.5 -6t-49 -3q-100 0 -174 35q-109 51 -169 157t-60 232zM238 1022q0 -65 26 -125q21 -51 56 -85t73 -47.5t66 -18t53 -3.5q56 2 108.5 22.5t88.5 57.5q35 37 56 96.5t21 114.5q0 51 -20 107q-21 53 -57.5 89.5 t-78 51.5t-70 20t-54.5 5q-64 0 -119 -27q-47 -23 -79.5 -60.5t-46 -78t-18.5 -68.5t-5 -51z" />
<glyph unicode=":" horiz-adv-x="512" d="M170 121q0 29 10 51q7 17 19.5 33.5t41.5 33.5t66 17q57 0 95.5 -39.5t37.5 -97.5q0 -57 -39.5 -96.5t-97.5 -38.5q-55 2 -94.5 42t-38.5 95zM170 641q0 57 38.5 96t96.5 39q57 0 97 -40t40 -97q0 -58 -39.5 -96.5t-97.5 -38.5q-59 2 -97 40.5t-38 96.5z" />
<glyph unicode=";" horiz-adv-x="512" d="M106 -264l195 520l162 -66l-230 -505zM211 641q0 40 20 74q39 61 115 61q56 0 96.5 -38.5t40.5 -96.5t-40.5 -96.5t-98.5 -36.5q-57 0 -95 37.5t-38 95.5z" />
<glyph unicode="&#x3c;" horiz-adv-x="1366" d="M0 635v176l1366 641v-176l-1161 -553l1161 -553v-176z" />
<glyph unicode="=" horiz-adv-x="1366" d="M0 332v160h1366v-160h-1366zM0 700v162h1366v-162h-1366z" />
<glyph unicode="&#x3e;" horiz-adv-x="1366" d="M0 -6v176l1161 553l-1161 553v176l1366 -641v-176z" />
<glyph unicode="?" horiz-adv-x="854" d="M147 1108q3 99 29 164q13 32 33 60.5t54 59t88.5 48.5t121.5 18q24 0 50.5 -3.5t68.5 -15t83 -40.5t70 -72q50 -78 50 -166q0 -72 -35 -141q-18 -36 -42.5 -65t-58.5 -54.5t-59.5 -41t-71.5 -40.5l-18 -10q-10 -5 -37 -23q-113 -71 -113 -176q0 -53 29 -89t82 -36 q120 0 129 185l168 -2q0 -121 -57 -205q-81 -115 -242 -115q-80 0 -145 33q-42 23 -71 58t-40.5 72.5t-15.5 62.5t-4 47q0 107 65 186q21 27 54 53t98 70l24 14q10 6 31.5 20t32.5 21q32 21 49.5 34.5t36.5 37t32 53.5q15 45 15 66q0 59 -37 96q-45 45 -117 45 q-74 -1 -120 -53t-46 -127q0 -6 1 -16t1 -15zM342 121q0 57 40 96t97 37q57 0 96 -39t39 -96q-2 -60 -41.5 -99t-97.5 -38q-56 3 -94.5 43.5t-38.5 95.5z" />
<glyph unicode="@" horiz-adv-x="1835" d="M141 481q0 52 7 108.5t25.5 138.5t61 174.5t105.5 176.5q33 45 71.5 87t108.5 98t147.5 96.5t188.5 69t231 28.5q218 0 371 -104q32 -21 61 -47.5t62 -70.5t57 -94.5t40 -122t16 -151.5q0 -64 -8 -120q-43 -302 -213 -478q-127 -127 -254 -127q-67 0 -104.5 31t-51.5 70 q-12 35 -14 73q-4 -5 -52 -63q-114 -109 -239 -109q-62 0 -113 25q-156 76 -156 307q0 144 60 283.5t168 222.5q100 78 205 76q129 0 202 -109q15 -22 33 -63l31 127h139l-67 -307q-4 -20 -16.5 -79t-20.5 -98.5t-15 -90.5t-6 -83q0 -45 17 -67.5t45 -22.5q50 0 120 70 q29 31 58.5 76.5t61 111.5t51.5 155t20 183q0 129 -43 221q-31 71 -84 124t-103.5 79t-111 41t-94 18t-66.5 3q-167 0 -323 -74q-223 -107 -358.5 -326t-135.5 -467q0 -155 53 -272q52 -117 152.5 -198t217.5 -116.5t247 -35.5q295 0 551 184q55 40 135 115l65 -84 q-74 -76 -164 -137q-278 -191 -585 -191q-131 0 -262 37.5t-236 107.5q-87 61 -151 148q-138 182 -138 442zM651 485q0 -108 49 -157t115 -49q61 0 125 47q53 41 89.5 102.5t51 123t20 99.5t5.5 62q1 58 -15 102.5t-42.5 68t-55 35t-57.5 11.5q-62 -2 -125 -49 q-77 -60 -118.5 -174t-41.5 -222z" />
<glyph unicode="A" horiz-adv-x="1280" d="M0 0l637 1483h14l629 -1483h-197l-174 416h-540l-174 -416h-195zM434 569h408l-103 254q-54 147 -98 252q-9 -23 -28.5 -70t-28.5 -71z" />
<glyph unicode="B" horiz-adv-x="1024" d="M123 0v1446h301q53 0 80 -2q127 -7 201.5 -45.5t119.5 -102.5q64 -84 64 -204q0 -24 -3.5 -51t-14.5 -67t-37 -81.5t-64 -75.5q-30 -27 -78 -55q78 -33 123 -66q52 -40 90.5 -112t38.5 -181q0 -137 -72 -241q-27 -38 -59.5 -66t-71.5 -45.5t-74 -28t-83 -15t-82 -6 t-86 -1.5h-293zM305 162h131q11 0 35 1t37 1q76 5 127 23t88 67q47 63 47 149q0 94 -49 158q-28 36 -63 58.5t-82 31.5t-79 11t-89 2h-103v-502zM305 821h117q71 5 113 15q83 23 127.5 83.5t44.5 145.5q0 83 -43 137q-22 28 -51.5 46t-68.5 24.5t-64 8t-70 1.5h-105v-461z " />
<glyph unicode="C" horiz-adv-x="1280" d="M78 727q0 141 45 272q73 215 252.5 343t406.5 128q165 0 320 -61q16 -5 74 -33v-209q-75 44 -80 47q-153 86 -305 86q-195 0 -332 -124q-91 -82 -140 -204t-49 -249t49 -242q64 -154 196 -245t296 -91q80 0 164.5 27t150.5 74q27 20 72 65v-227q-63 -33 -68 -35 q-55 -26 -147.5 -50t-196.5 -24q-258 0 -450 166q-43 37 -82 83.5t-82 118.5t-68.5 171.5t-25.5 212.5z" />
<glyph unicode="D" horiz-adv-x="1280" d="M123 0v1446h278q68 0 103 -2q155 -9 258 -43q102 -34 182 -92q38 -28 71.5 -62t68.5 -87t60.5 -115t41.5 -147t16 -181q0 -192 -55.5 -325t-134.5 -212q-74 -74 -199 -123q-69 -27 -150.5 -40t-135.5 -15t-154 -2h-250zM305 168h76q84 0 127 2q122 7 209.5 37.5 t133.5 69.5t83 96q84 137 84 342q-2 211 -88 344q-42 65 -109 112q-59 43 -140 66.5t-140 28.5t-156 8h-80v-1106z" />
<glyph unicode="E" horiz-adv-x="980" d="M123 0v1446h756v-172h-572v-406h565v-161h-565v-539h578v-168h-762z" />
<glyph unicode="F" horiz-adv-x="894" d="M123 0v1446h717v-174h-535v-408h526v-170h-526v-694h-182z" />
<glyph unicode="G" horiz-adv-x="1536" d="M78 715q0 286 184 497q28 33 60.5 63t87.5 67t115.5 64t145 45.5t175.5 18.5q272 0 473 -163q56 -46 117 -117l-144 -131q-55 65 -90 96q-162 143 -371 143q-108 0 -219 -47q-159 -69 -248.5 -214.5t-89.5 -321.5q0 -120 41 -223q64 -160 201.5 -250t310.5 -90 q119 0 207 43q81 38 143 113t87 163q12 54 12 107h-387v174h590q3 -50 3 -84q0 -16 -1 -29q-2 -35 -8.5 -75.5t-22.5 -103.5t-49.5 -132t-79.5 -127q-77 -88 -166 -140q-153 -86 -336 -86q-147 0 -291 58q-209 86 -329.5 270t-120.5 412z" />
<glyph unicode="H" horiz-adv-x="1323" d="M123 0v1446h180v-584h715v584h182v-1446h-182v694h-715v-694h-180z" />
<glyph unicode="I" horiz-adv-x="425" d="M121 0v1446h184v-1446h-184z" />
<glyph unicode="J" horiz-adv-x="724" d="M2 127l121 143q68 -114 170 -114q66 0 98 53q17 27 22 64t7 116v1057h182v-1079q0 -14 -1 -39t-1 -37q-14 -183 -135 -266q-81 -50 -170 -50q-129 0 -236 93q-24 21 -57 59z" />
<glyph unicode="K" horiz-adv-x="1110" d="M123 0v1446h184v-619l516 619h221l-542 -643q31 -38 98 -131l510 -672h-233l-570 758v-758h-184z" />
<glyph unicode="L" horiz-adv-x="811" d="M123 0v1446h182v-1280h463v-166h-645z" />
<glyph unicode="M" horiz-adv-x="1662" d="M53 -2l266 1485h33l385 -924q6 -16 26.5 -65t29.5 -76q9 -25 43 -121q40 116 94 250l393 936h29l258 -1485h-183l-120 766q-15 89 -29 209q-26 -58 -43 -109l-375 -901h-55l-352 844q-25 55 -33 78q-6 18 -17 48.5t-14 39.5l-37 -246l-116 -729h-183z" />
<glyph unicode="N" horiz-adv-x="1492" d="M123 0v1477h43l930 -994q17 -19 50.5 -56.5t51.5 -55.5v1075h172v-1477h-45l-954 1030q-48 52 -70 80v-1079h-178z" />
<glyph unicode="O" horiz-adv-x="1662" d="M78 723q0 42 5 87t20.5 112.5t52 141.5t90.5 140q29 35 61.5 66.5t87.5 69.5t116 65.5t146.5 46t178.5 18.5q304 0 510 -184q62 -55 108.5 -123.5t71 -127.5t39.5 -123t18.5 -103.5t3.5 -75.5q0 -160 -63 -305q-90 -211 -276.5 -330.5t-418.5 -122.5q-169 0 -307 58 q-139 57 -240 163.5t-152.5 241.5t-51.5 285zM270 725q0 -217 125 -377q27 -35 61.5 -66t90 -65.5t133.5 -54.5q65 -16 138 -16q15 0 30 1q183 6 328 117q35 27 68 63t69 92.5t58 137t22 172.5q0 133 -45 242q-65 156 -204.5 242.5t-312.5 86.5q-202 0 -358 -124 q-65 -55 -109.5 -123.5t-62.5 -134t-24.5 -109.5t-6.5 -84z" />
<glyph unicode="P" horiz-adv-x="894" d="M123 0v1446h233h46h58q42 -2 99.5 -11t98.5 -25.5t84.5 -49t74.5 -78.5q68 -103 68 -240q0 -26 -4 -57.5t-16.5 -82.5t-44 -102t-77.5 -87q-45 -36 -103.5 -54.5t-101.5 -22.5t-116 -5h-115v-631h-184zM305 793h78q153 0 221 38q101 58 101 205q0 144 -84 203 q-29 20 -74 31t-73.5 13t-80.5 3h-88v-493z" />
<glyph unicode="Q" horiz-adv-x="1662" d="M78 709q0 157 60 298t162 242.5t243.5 161t298.5 59.5q159 0 299 -61q205 -88 326.5 -273t121.5 -409q0 -266 -172 -475q-23 -29 -76 -82l269 -260q-75 -12 -110 -14q-11 -1 -27 -1q-33 0 -84 3l-177 176l-73 -37q-158 -62 -318 -62q-263 0 -463 154q-34 26 -65.5 56.5 t-72.5 85t-70.5 115t-50.5 146t-21 177.5zM274 709q0 -103 31 -195q40 -119 130 -212t206 -134q96 -31 197 -31q61 0 114.5 11t73.5 19.5t61 27.5l-327 319q6 1 26.5 4t26.5 4t24 3t29 2t30 0.5t40 0t47 -1.5l236 -229q178 190 178 426q0 206 -123 362q-27 33 -59.5 63 t-86.5 67t-129.5 59t-160.5 22q-162 0 -292 -79.5t-201 -213.5t-71 -294z" />
<glyph unicode="R" horiz-adv-x="980" d="M123 0v1446h305q74 0 111 -2q106 -7 186.5 -39.5t134.5 -106.5q70 -94 70 -224v-7q0 -161 -90 -266q-43 -47 -95 -76q-19 -10 -41 -18t-43 -13.5t-36 -8.5t-31.5 -6t-18.5 -3l400 -676h-211l-377 664h-80v-664h-184zM307 819h96q181 3 244 39q40 22 70.5 70.5t30.5 124.5 q0 79 -35 135q-17 26 -41.5 44t-46 27.5t-56 14.5t-55 6t-59.5 2h-148v-463z" />
<glyph unicode="S" horiz-adv-x="937" d="M59 281l160 75q74 -219 244 -219q88 0 151 66q62 67 62 176q0 40 -11.5 74t-26.5 56.5t-46 48t-51.5 39t-61.5 38.5l-78 41q-145 85 -202 145q-97 112 -97 264q0 82 23 150q9 27 24.5 54.5t44.5 61.5t65.5 59t92 42.5t119.5 17.5q184 0 309 -149q29 -38 58 -94l-146 -84 q-9 18 -18 33q-10 17 -22 34t-36.5 42.5t-61 41t-77.5 15.5q-29 0 -71 -14t-74 -48q-53 -59 -53 -155q0 -57 22 -97q22 -39 55 -67.5t103 -69.5l141 -80q71 -43 115.5 -79t77.5 -89q61 -93 61 -227q0 -79 -29 -152q-44 -120 -141.5 -188t-224.5 -68q-31 0 -65.5 5.5 t-83.5 21.5t-98.5 53t-86.5 92q-31 45 -66 134z" />
<glyph unicode="T" horiz-adv-x="894" d="M0 1278v168h897v-168h-358v-1278h-185v1278h-354z" />
<glyph unicode="U" horiz-adv-x="1323" d="M123 551v895h184v-893q3 -107 14.5 -165t40.5 -101q37 -59 99 -90q86 -47 207 -47q136 0 221 63q47 33 76 75.5t40.5 97t14.5 96.5q2 32 2 78v32v854h178v-885q0 -157 -16 -227q-42 -174 -189 -271q-135 -88 -348 -88q-28 0 -53.5 1.5t-72 9t-86.5 20t-88 39t-85 61.5 t-69.5 91t-49.5 125q-17 70 -20 229z" />
<glyph unicode="V" horiz-adv-x="1193" d="M0 1446h203l256 -670q50 -130 82 -231q24 -76 57 -191q19 71 41 133q19 58 55 150l312 809h188l-582 -1483h-41z" />
<glyph unicode="W" horiz-adv-x="2004" d="M0 1446h195l256 -682q29 -74 73 -203q35 -101 64 -196q37 123 88 268l303 856h49l246 -698q40 -117 72 -218q27 -83 63 -208q15 39 42.5 116.5t41.5 116.5q11 30 34.5 92t35.5 92l260 664h182l-580 -1477h-47l-258 731q-41 123 -119 369q-79 -234 -159 -465l-230 -635 h-49z" />
<glyph unicode="X" d="M0 0l426 739l-408 707h201l184 -330q48 -92 125 -231l99 178l207 383h206l-413 -707l440 -739h-209l-174 305q-65 119 -156 289q-13 -23 -41 -70t-41 -71l-104 -197l-143 -256h-199z" />
<glyph unicode="Y" horiz-adv-x="1110" d="M0 1446h209l190 -328q32 -55 88 -157q31 -59 72 -142q10 19 29.5 58l29.5 59q36 68 80 139l213 371h199l-465 -805v-641h-184v651z" />
<glyph unicode="Z" d="M0 0l731 1284h-610v162h919l-737 -1278h737v-168h-1040z" />
<glyph unicode="[" horiz-adv-x="512" d="M152 -391v1929h352v-135h-195v-1659h195v-135h-352z" />
<glyph unicode="\" horiz-adv-x="724" d="M53 1446h164l455 -1446h-164z" />
<glyph unicode="]" horiz-adv-x="512" d="M8 -256h195v1659h-195v135h352v-1929h-352v135z" />
<glyph unicode="^" horiz-adv-x="1492" d="M291 688l385 758h158l368 -758h-198l-254 533l-263 -533h-196z" />
<glyph unicode="_" horiz-adv-x="1024" d="M-20 -281h1064v-161h-1064v161z" />
<glyph unicode="`" horiz-adv-x="555" d="M-123 1243l133 107l258 -271l-96 -78z" />
<glyph unicode="a" d="M66 440q0 173 96 303q19 25 43.5 48.5t65.5 53t99 47.5q55 17 115 17h7q149 0 262 -100q8 -6 45 -43v127h162v-893h-162v141q-24 -36 -41 -53q-41 -41 -109.5 -73.5t-163.5 -32.5q-101 0 -188 43q-61 30 -107 78.5t-68.5 94.5t-36 100t-16.5 84.5t-3 57.5zM236 442 q0 -130 70.5 -216t199.5 -95h14q54 0 96 14q99 31 146 111t47 190q0 82 -18 127q-29 87 -104 139t-167 52q-58 0 -117 -27q-29 -13 -55.5 -34.5t-53 -56t-42.5 -87.5t-16 -117z" />
<glyph unicode="b" d="M106 0v1532h162v-766q5 5 13 13.5t15.5 16t14.5 13.5q111 100 265 100h6q103 0 182 -41q40 -20 77.5 -51.5t75.5 -82t61 -127.5t23 -169q0 -154 -77 -272q-122 -184 -336 -184q-29 0 -64.5 5t-95 26t-106.5 57q-36 29 -54 49v-119h-162zM270 451q0 -173 103 -256 q80 -64 196 -64q57 2 113 27q78 39 116 115.5t38 170.5q0 81 -29 152t-90 113q-71 51 -168 51q-57 0 -113 -23q-45 -19 -78.5 -52t-49.5 -64.5t-25.5 -69.5t-11 -58.5t-1.5 -41.5z" />
<glyph unicode="c" horiz-adv-x="811" d="M66 438q0 37 6.5 80t35 112.5t76.5 125.5q20 23 47 45.5t70 49t102.5 42.5t124.5 16q125 0 217 -47q17 -7 31 -18v-170q-7 4 -21.5 13t-21.5 13q-108 52 -194 52q-128 0 -215 -87t-86 -216q0 -132 84.5 -219t216.5 -87q46 0 85.5 10t70 28.5t45.5 30.5t36 32v-195 q-125 -67 -250 -67q-172 0 -299 104q-76 62 -118.5 156.5t-42.5 195.5z" />
<glyph unicode="d" d="M66 442q0 212 122 338q41 46 122.5 88.5t187.5 42.5q48 0 92.5 -11.5t72 -24.5t59.5 -38t42.5 -35.5t32.5 -33.5v764h164v-1532h-164l-2 137q-22 -34 -47 -55q-40 -38 -110 -69t-165 -31q-96 0 -172 38q-40 19 -77 50t-75 80.5t-60.5 125t-22.5 166.5zM233 438 q0 -129 73 -216t202 -87q70 0 123 25q87 38 129 116q40 75 39 170v9q0 66 -17 114q-32 89 -105.5 138t-166.5 49q-68 0 -121 -27q-43 -20 -74.5 -55t-46.5 -67.5t-23.5 -71.5t-10 -58.5t-1.5 -38.5z" />
<glyph unicode="e" horiz-adv-x="980" d="M66 444q0 91 24 166q43 138 151.5 218.5t254.5 80.5q170 0 284 -108q129 -124 129 -336q0 -8 -1 -24t-1 -23l-674 -2q0 -42 9 -84q23 -91 98.5 -147t169.5 -56q44 0 92 16q37 14 71 41t50 47t49 64l121 -92q-34 -52 -57 -78q-132 -145 -330 -145q-113 0 -199 45 q-31 15 -60.5 35.5t-63.5 56.5t-59 80t-41.5 108t-16.5 137zM244 557h499q-5 48 -18 76q-8 21 -23.5 43t-41.5 47.5t-67.5 42t-90.5 16.5q-22 0 -45.5 -4t-57 -16t-65.5 -40.5t-55 -70.5q-22 -38 -35 -94z" />
<glyph unicode="f" horiz-adv-x="598" d="M33 748v145h131v367q2 78 15 130t54 93q48 43 109 57q32 8 88 8q63 0 143 -10v-172q-69 25 -108 25q-40 0 -78 -19q-28 -17 -41.5 -48.5t-13.5 -62.5v-63v-305h235v-145h-235v-748h-168v748h-131z" />
<glyph unicode="g" d="M66 440q0 127 53 236.5t155 173.5q95 59 205 59q76 0 144 -28.5t104 -55.5q32 -23 70 -69v137h164v-809q0 -170 -21 -250q-11 -40 -29.5 -76t-52.5 -73.5t-79.5 -64t-114.5 -43.5t-152 -17q-182 0 -279 78q-36 31 -57 61q-48 75 -63 145q-6 40 -9 72h162q0 -2 2 -14 t3 -18.5t4 -19.5t7 -23t11 -23.5t16 -26.5q66 -92 209 -92q92 0 162 37q32 17 54.5 40.5t34.5 47.5t18.5 58.5t8 61t1.5 66.5v129l-25 -37q-36 -44 -108 -82t-172 -38q-111 0 -190.5 42.5t-123.5 92.5q-112 122 -112 323zM236 438q0 -129 71 -211q78 -95 205 -100 q90 0 160 39q135 75 135 270q0 141 -74 230q-77 94 -207 94q-74 0 -137 -33q-62 -31 -107.5 -102t-45.5 -187z" />
<glyph unicode="h" horiz-adv-x="980" d="M106 0v1532h170l3 -756q28 35 59 55q97 78 219 78h6q17 0 45 -3l29 -3q130 -29 188 -121q23 -36 35 -81.5t14 -74.5t3 -87v-539h-168v504q0 42 -1 62t-6.5 54.5t-20.5 59t-40 43.5q-49 39 -125 39q-84 0 -146.5 -48.5t-82.5 -129.5q-11 -41 -11 -113v-471h-170z" />
<glyph unicode="i" horiz-adv-x="382" d="M70 1272q0 52 35.5 86.5t87.5 34.5q51 0 85.5 -34.5t34.5 -86.5t-34.5 -86.5t-85.5 -34.5t-87 35t-36 86zM106 0v893h173v-893h-173z" />
<glyph unicode="j" horiz-adv-x="382" d="M72 1276q0 35 20 65q10 19 36.5 36.5t64.5 17.5q50 -2 86 -37.5t36 -85.5q-1 -49 -38 -85t-87 -36q-51 1 -86 38q-32 35 -32 82v5zM106 -422v1315h173v-1315h-173z" />
<glyph unicode="k" horiz-adv-x="854" d="M106 0v1532h170v-1020l330 381h223l-387 -408l410 -485h-223l-353 430v-430h-170z" />
<glyph unicode="l" horiz-adv-x="382" d="M106 0v1532h170v-1532h-170z" />
<glyph unicode="m" horiz-adv-x="1449" d="M106 0v891h166v-96q41 41 52 49q84 65 192 65q125 0 209 -82q25 -25 43 -51q30 36 39 45q90 88 235 88q86 0 148 -31t94 -69q39 -49 50.5 -103t11.5 -133v-573h-170v563q-1 45 -4.5 72t-20 60.5t-47.5 52.5q-41 26 -103 26q-60 0 -108 -29q-29 -18 -47.5 -41.5 t-25.5 -54.5t-9 -54t-2 -63v-532h-172v512q0 100 -8 144t-41 77q-21 21 -51 33q-28 8 -64 8q-118 0 -170 -86q-31 -53 -31 -203v-485h-166z" />
<glyph unicode="n" horiz-adv-x="980" d="M106 0v893h166v-117q18 16 64 53q108 82 231 82q78 0 136.5 -28.5t91.5 -61.5q34 -35 52.5 -83.5t22.5 -84.5t7 -98v-555h-168v526v18q0 48 -9 83q-5 20 -15 40t-29.5 44t-54 38.5t-79.5 14.5q-82 0 -148 -48t-89 -126q-13 -48 -13 -119v-471h-166z" />
<glyph unicode="o" d="M66 440q0 34 5.5 73.5t30 103t64.5 116.5q44 56 99.5 94.5t110 54.5t91.5 21.5t70 5.5q43 0 89 -7.5t119.5 -42t128.5 -93.5q125 -128 125 -326q0 -110 -41 -198q-60 -126 -179 -194q-114 -66 -247 -66h-12q-132 6 -231 63q-70 39 -118 97.5t-69 118t-28.5 102t-7.5 77.5 zM240 444q0 -76 36 -157q25 -46 62 -78t76 -46t65.5 -19.5t50.5 -6.5q61 0 119 25q28 13 54.5 31.5t56.5 51t48.5 84.5t18.5 115q0 90 -45 168q-13 21 -29.5 40.5t-46 45t-73 41t-92.5 15.5q-117 0 -209 -82q-92 -86 -92 -228z" />
<glyph unicode="p" d="M106 -422v1315h166v-121q75 72 143.5 104.5t166.5 32.5q100 0 178 -37q42 -19 80.5 -50.5t76.5 -82t61 -127.5t23 -170q-1 -93 -24.5 -170t-62 -126.5t-77 -80.5t-79.5 -49q-76 -34 -174 -34q-65 0 -117.5 14t-91.5 42t-57.5 45.5t-45.5 49.5v-555h-166zM266 453 q0 -20 2 -43t13 -64.5t29.5 -76t55 -68t85.5 -49.5q58 -15 114 -15q54 0 99 15q85 30 126 110.5t41 177.5q0 77 -22 140q-20 55 -55 93.5t-75.5 54.5t-70 22t-57.5 6q-149 -3 -227 -109q-58 -79 -58 -194z" />
<glyph unicode="q" d="M66 449q0 172 86 296q120 164 327 164q146 0 250 -78q30 -22 66 -63v125h166v-1315h-166v559q-2 -2 -12 -14.5t-24.5 -28.5t-27.5 -28q-98 -84 -248 -84q-135 0 -231 64.5t-141 168.5t-45 234zM233 449q0 -24 3 -55.5t22.5 -89t52.5 -93.5q38 -38 82 -55q31 -12 66 -16 q24 -4 38 -4q7 0 11 1q54 0 102 17q92 31 139.5 108.5t47.5 177.5q0 87 -33 160q-71 154 -264 154q-40 0 -99 -17q-28 -11 -55 -32.5t-53.5 -55.5t-42.5 -86t-17 -114z" />
<glyph unicode="r" horiz-adv-x="681" d="M106 0v893h170v-139q2 2 14.5 16.5t29.5 32t32 31.5q88 77 170 77q80 0 160 -57l-84 -152q-14 14 -29 23q-35 25 -83 25h-7q-18 0 -38 -4.5t-46 -15.5t-49.5 -35.5t-38.5 -59.5q-20 -47 -25.5 -105t-5.5 -178v-352h-170z" />
<glyph unicode="s" horiz-adv-x="681" d="M35 127l121 100q10 -14 37 -45q61 -53 124 -53q54 0 96 30.5t42 84.5q-1 29 -15 52.5t-40 41.5t-49 30t-56 27q-7 3 -10 4l-35 17q-65 35 -88 53q-88 74 -88 182q0 64 28 117q36 69 104 106t148 37q127 0 215 -90q24 -24 43 -55l-137 -80q-1 1 -6.5 8.5t-9 12t-11.5 13 t-15 14.5t-17.5 13t-21 11t-24.5 7t-28 3q-26 0 -55 -14q-28 -17 -41 -41t-13 -41q0 -20 17 -45q13 -20 35 -37t37.5 -24.5t44.5 -20.5l41 -19q98 -53 137.5 -91t54.5 -95q12 -28 12 -86q0 -100 -51 -166q-26 -34 -63 -57.5t-73.5 -33t-60 -12.5t-42.5 -3q-45 0 -107.5 18.5 t-120.5 65.5q-30 22 -59 61z" />
<glyph unicode="t" horiz-adv-x="512" d="M10 743v150h140v330h169v-330h183v-150h-183v-743h-169v743h-140z" />
<glyph unicode="u" horiz-adv-x="980" d="M106 426v467h166v-444q3 -145 21 -193t66 -85.5t133 -37.5q72 0 124 35q31 22 51 50.5t28 67.5t10.5 66t3.5 74v467h168v-455q0 -58 -2 -96t-11 -88t-26 -85t-48.5 -71t-76.5 -61q-98 -55 -224 -55q-134 0 -229 59q-41 26 -70.5 61t-45 68.5t-24.5 81.5t-11 83.5t-3 90.5 z" />
<glyph unicode="v" horiz-adv-x="937" d="M0 893h193l147 -320q58 -126 59 -127q36 -77 74 -170q34 77 98 216t88 192l97 209h182l-434 -918h-64z" />
<glyph unicode="w" horiz-adv-x="1366" d="M0 893h186l107 -289q62 -145 80 -190l37 -111q49 131 71 182l178 430h56l180 -440l37 -86q26 -76 29 -86q15 40 51.5 136.5t56.5 148.5l119 305h178l-379 -918h-55l-184 449q-17 47 -66 164q-19 -55 -59 -152l-191 -461h-53z" />
<glyph unicode="x" horiz-adv-x="894" d="M0 0l352 457l-329 436h210l183 -252q9 -14 35 -49q70 97 81 110l144 191h198l-329 -436l352 -457h-213l-131 184q-28 38 -104 144q-54 -76 -121 -166l-123 -162h-205z" />
<glyph unicode="y" horiz-adv-x="937" d="M0 893h195l157 -303q106 -208 140 -277q65 143 116 246l158 334h172l-610 -1284h-174l245 518z" />
<glyph unicode="z" horiz-adv-x="854" d="M23 0v37l528 706h-473v150h753v-45l-526 -703h506v-145h-788z" />
<glyph unicode="{" horiz-adv-x="724" d="M141 506v12q53 12 84 43q16 16 28 40.5t18 44.5t9.5 54.5t4.5 50t1.5 53.5t0.5 44v344q0 1 0.5 17.5t1 26t3 31t6 37t10.5 38t15.5 40t22 37.5t30.5 35.5t39.5 29.5t49.5 23q13 5 26.5 8.5t24.5 5.5t31.5 4t32.5 2.5t41.5 2t46.5 2.5l-2 -12q-6 -2 -18 -5.5t-22 -6.5 t-18 -7q-100 -34 -131 -131q-4 -13 -6.5 -26t-4 -22.5t-2.5 -29.5t-1.5 -29t-1 -40t-0.5 -45v-201v-41q0 -101 -1.5 -146t-11 -97.5t-30.5 -88.5q-7 -11 -14.5 -21t-16.5 -18t-16 -14.5t-17.5 -12t-16 -9t-16 -7.5t-14 -5t-13.5 -4l-9 -3q23 -9 33 -13t36 -19t45 -37.5 t33 -53.5q6 -12 10.5 -24t7.5 -28t5.5 -27t4 -32t2 -32t1 -39t0.5 -40v-48v-51v-226q2 -102 8 -146t29 -85q14 -25 30.5 -42.5t42 -30t42 -18.5t53.5 -18l-2 -12q-14 1 -40.5 2t-39.5 2q-101 5 -160 35q-68 36 -102 104q-9 19 -16 42t-10.5 40t-6 46t-3 40.5t-1 46 t-0.5 41.5v265q0 11 0.5 29t0.5 32t-1 27q0 186 -103 247q-29 15 -43 19z" />
<glyph unicode="|" horiz-adv-x="468" d="M152 -512v2044h165v-2044h-165z" />
<glyph unicode="}" horiz-adv-x="724" d="M59 -500q80 19 120 50q55 42 73 116q9 38 12 176v201q0 22 0.5 73.5t1 69t1.5 55t4 54.5l7.5 42.5t11.5 43.5t17 35q38 64 133 94q-73 27 -106 59q-48 50 -59.5 117.5t-12.5 218.5v47v226v24v26t-0.5 24t-1 26t-2 24t-4 25.5t-5.5 23.5t-7.5 25t-10 22t-12.5 23 q-28 43 -62.5 62t-97.5 37v12q46 -4 70 -4l16 -1q16 -1 25.5 -2t28.5 -3.5t34.5 -7t35 -11t37.5 -16.5t34 -23q15 -12 27.5 -26.5t21.5 -27.5t16.5 -33t12.5 -32t8.5 -36.5t5.5 -34.5t3.5 -38t1.5 -35t0.5 -37t0.5 -34v-264q0 -115 2 -137q7 -131 90 -190q23 -14 54 -25v-12 q-49 -12 -80 -41q-13 -12 -23.5 -29.5t-17 -32.5t-11.5 -39.5t-7 -38t-3.5 -42t-1.5 -38v-39.5v-32v-256q-2 -37 -2 -109q-5 -106 -36 -169q-37 -76 -109 -113q-13 -7 -25 -11.5t-28 -8t-25 -5.5t-32 -3.5t-33 -2t-43 -2t-48 -2.5v12z" />
<glyph unicode="~" horiz-adv-x="1492" d="M254 594q49 69 89 103q83 69 183 69q38 -1 82.5 -13.5t69.5 -23t76 -33.5l67 -30q97 -43 144 -43q75 0 165 90q1 1 31 37l78 -148q-52 -59 -90 -88q-93 -74 -191 -74q-45 1 -84.5 14t-121.5 52l-58 29l-14 7q-13 6 -29 12t-36.5 13.5t-43.5 12t-43 4.5t-37 -3.5 t-33.5 -13.5t-28 -17t-27 -24t-22 -24.5t-23 -28.5t-21.5 -27z" />
<glyph unicode="&#xa1;" horiz-adv-x="512" d="M70 1329q0 57 40.5 96.5t98.5 38.5q55 -1 94 -42t39 -97q0 -54 -40.5 -93.5t-96.5 -39.5t-95.5 40.5t-39.5 96.5zM121 0v1071h162v-1071h-162z" />
<glyph unicode="&#xa3;" horiz-adv-x="1024" d="M18 80q53 117 146 160q39 19 104 26q49 83 49 160q0 78 -49 174h-250v121h193q-34 70 -51 109.5t-33 100.5t-16 118q0 82 26 151q13 34 31.5 66t53.5 69.5t78.5 65.5t109.5 46.5t143 18.5q91 0 168 -30q87 -35 148.5 -107t86.5 -164q12 -37 19 -106l-168 -53 q6 104 -39 180q-35 61 -92 93t-127 32q-18 0 -37 -2t-49.5 -10.5t-55.5 -23t-50.5 -42.5t-41.5 -66q-24 -48 -24 -110q0 -67 37 -164q28 -69 73 -172h340v-121h-290q1 -4 6 -22t8.5 -31.5t6.5 -37t3 -46.5q0 -41 -11.5 -80.5t-43.5 -116.5q80 -33 153 -78l23 -8 q68 -33 102 -33q24 0 58 15q8 4 16 9t14 9t13.5 12t11.5 11.5t11.5 13.5t9.5 12.5t10 14.5l9 13.5l10 15t9 14.5l134 -74q-1 -2 -9 -16.5t-19 -33.5t-20 -32q-98 -145 -249 -145q-40 0 -83.5 11.5t-71.5 23.5t-75 36l-41 23q-3 1 -9 4q-80 36 -124 37q-25 0 -61 -12 q-74 -32 -97 -127z" />
<glyph unicode="&#xa4;" horiz-adv-x="1366" d="M86 223l156 154q-20 28 -33 51t-32.5 64.5t-29.5 94t-10 111.5q0 137 66 254q26 43 39 60l-154 155l123 123l154 -153q39 27 70 44.5t102 38.5t147 21q134 0 248 -59q13 -7 29 -18t27.5 -18.5t12.5 -8.5l154 153l125 -123l-156 -155q103 -140 103 -318q0 -123 -47 -223 q-15 -33 -58 -96l158 -156l-127 -123l-156 156q-141 -102 -315 -102q-77 0 -147 20.5t-100 38t-70 45.5l-156 -156zM301 694q0 -162 111.5 -272.5t273.5 -110.5q121 0 209 62q27 18 52 42t53.5 63t45.5 95.5t17 122.5q0 137 -78 238q-117 147 -301 145q-77 0 -141 -24 q-114 -42 -178 -140t-64 -221z" />
<glyph unicode="&#xa6;" horiz-adv-x="468" d="M152 389h165v-780h-165v780zM152 631v780h165v-780h-165z" />
<glyph unicode="&#xa7;" horiz-adv-x="894" d="M47 659q0 89 34 167.5t101 127.5q53 36 152 66q-21 12 -64 35q-22 13 -37.5 23.5t-40 34t-40 49t-27.5 66t-12 87.5q0 29 5 62.5t30 89t69 92.5q88 77 244 77q121 0 203 -55q74 -41 110 -129q29 -65 31 -176h-172q7 87 -43 143q-46 51 -135 51q-41 0 -70 -10 q-15 -6 -29.5 -15.5t-32 -26t-28 -44t-10.5 -61.5q0 -90 84 -152q25 -19 66 -40t73 -35l31 -13l20 -10q37 -19 54 -28t49 -27t47.5 -29.5t40.5 -31.5t37.5 -37t28.5 -41t23 -49t12 -56t5 -66q0 -214 -147 -313q-44 -31 -119 -55q133 -55 178 -178q18 -49 18 -115 q0 -152 -93.5 -241t-246.5 -89q-71 0 -130 17t-97 46t-61.5 58.5t-38.5 62.5q-31 68 -31 164h176q0 -42 10 -71q14 -43 55.5 -77t116.5 -34q41 0 73.5 12.5t51.5 31t31 42.5t16.5 44t4.5 38q0 78 -64 135q-40 38 -172 90l-37 15q-43 20 -104 51q-26 15 -45.5 28.5t-51 43.5 t-51.5 62.5t-35.5 83.5t-15.5 109zM219 670q0 -41 17 -88q16 -42 46.5 -70.5t64.5 -41t58.5 -17t45.5 -4.5q99 -3 163 61q66 63 66 166q0 99 -66 163t-165 64q-57 0 -111 -24q-54 -29 -86.5 -86.5t-32.5 -122.5z" />
<glyph unicode="&#xa8;" horiz-adv-x="555" d="M-186 1208q0 49 35 84t83 35q46 -2 81.5 -37t35.5 -82q-1 -51 -37 -84.5t-86 -31.5q-45 1 -78.5 36t-33.5 80zM170 1208q0 49 34.5 83t84.5 34q34 0 57 -14q28 -15 44 -43t16 -60q0 -47 -33.5 -80.5t-81.5 -35.5q-50 -2 -85.5 31.5t-35.5 84.5z" />
<glyph unicode="&#xa9;" horiz-adv-x="1705" d="M125 725q0 264 166 467q28 32 58.5 61.5t84 67.5t112 65.5t140.5 46.5t170 19q247 0 434 -141q35 -26 68 -57.5t76.5 -87t74.5 -117t53 -149t21 -181.5q-7 -280 -180 -479q-102 -118 -246 -182t-303 -64q-156 0 -297.5 61.5t-245.5 175.5q-186 203 -186 494zM190 723 q0 -131 50 -252q75 -187 244 -299.5t372 -112.5q95 0 211 35q203 67 325 239.5t124 387.5q0 227 -132 403q-24 32 -52 61.5t-77 68t-103.5 66t-132.5 47t-163 19.5q-223 0 -393 -126q-32 -23 -63 -51t-70.5 -78.5t-69 -106.5t-50 -135.5t-20.5 -165.5zM383 725 q0 210 138.5 348.5t348.5 138.5q178 0 310 -108q29 -25 75 -76l-114 -108q-18 20 -28 30.5t-38.5 34t-54.5 36.5t-67 24.5t-85 11.5q-76 0 -139 -29q-89 -40 -137.5 -122t-48.5 -181q0 -73 30 -141q38 -87 119.5 -138t179.5 -51q52 0 98.5 14t81.5 39.5t51.5 41t37.5 38.5 l114 -100q-154 -186 -389 -186q-96 0 -184 32q-139 53 -219 175.5t-80 275.5z" />
<glyph unicode="&#xab;" horiz-adv-x="724" d="M25 455l282 393l109 -84l-240 -309l240 -314l-109 -82zM334 455l264 383l115 -76l-226 -307l226 -312l-115 -75z" />
<glyph unicode="&#xac;" horiz-adv-x="1366" d="M0 518v162h1366v-680h-164v518h-1202z" />
<glyph unicode="&#xad;" horiz-adv-x="681" d="M84 492v145h514v-145h-514z" />
<glyph unicode="&#xae;" horiz-adv-x="1705" d="M125 725q0 264 166 467q28 32 58.5 61.5t84 67.5t112 65.5t140.5 46.5t170 19q175 0 328 -76t258 -217q144 -194 141 -440q0 -42 -6 -87t-22 -110t-53.5 -136.5t-92.5 -135.5q-68 -80 -151.5 -135.5t-163 -79.5t-135.5 -32.5t-105 -8.5q-249 0 -446 149q-34 27 -66 58 t-73.5 85.5t-71.5 115t-51 146t-21 177.5zM190 723q0 -131 50 -252q75 -187 244 -299.5t372 -112.5q112 0 223 39q198 70 317.5 241t121.5 382q0 223 -129 399q-24 32 -52 62t-78 69t-105 67t-134 48t-164 20q-223 0 -393 -126q-32 -23 -63 -51t-70.5 -78.5t-69 -106.5 t-50 -135.5t-20.5 -165.5zM545 268v920h299h18q54 0 83.5 -1.5t74.5 -9.5t78 -28t59 -53q49 -61 49 -144q0 -21 -4.5 -43t-16 -51t-38.5 -56t-66 -46q-39 -17 -65 -23q41 -17 55 -28q17 -13 30 -31t20.5 -31.5t14.5 -40t9 -37.5t6.5 -42.5t5.5 -37.5q23 -147 62 -217l-189 2 q-13 28 -22.5 63.5t-13 52.5t-10 67.5t-7.5 58.5q-11 64 -25.5 94.5t-46.5 48.5q-28 17 -52.5 21t-86.5 6h-57v-414h-164zM709 811h137q37 0 55 2q95 7 127 70q14 21 14 57q0 13 -3 28.5t-17 39t-37 36.5q-43 19 -123 19q-7 0 -23 -1t-24 -1h-106v-250z" />
<glyph unicode="&#xb0;" horiz-adv-x="724" d="M33 1217q0 137 96.5 233t232.5 96q138 0 234 -96t96 -233q0 -79 -30 -142q-40 -86 -122 -138t-178 -52q-138 1 -233.5 98t-95.5 234zM201 1221q0 -67 47.5 -114.5t113.5 -47.5q68 0 115 47.5t47 114.5q0 66 -47.5 113.5t-114.5 47.5t-114 -47.5t-47 -113.5z" />
<glyph unicode="&#xb1;" horiz-adv-x="1366" d="M84 0v162h1196v-162h-1196zM84 772v162h520v496h162v-496h514v-162h-514v-496h-162v496h-520z" />
<glyph unicode="&#xb4;" horiz-adv-x="555" d="M-47 1081l258 267l131 -103l-295 -244z" />
<glyph unicode="&#xb5;" horiz-adv-x="1150" d="M141 748q0 90 13 131q36 73 90 71q39 0 65 -39q25 -36 25 -108q0 -52 -12 -158q-2 -17 -23 -194q-18 -146 -27 -195q14 -35 39 -80q65 -92 166 -92q61 0 109 37q18 13 34 30.5t28 34.5t22.5 38t17 37t13 35.5t9.5 30.5t6 24t3 14q8 40 12 90.5t5 98t1 85t-1 69.5t-1 33 q0 133 25 172q26 39 74 37q31 0 51 -14q30 -22 41.5 -65.5t11.5 -120.5q0 -40 -2.5 -94t-17 -156t-39.5 -178q-15 -50 -41 -99q40 -104 110 -104q20 0 39 12q49 27 49 111q0 13 -4 45l58 2q28 -70 28 -142q0 -13 -1.5 -27.5t-9 -42.5t-21 -48t-41.5 -36t-66 -16 q-83 0 -139 80q-24 32 -43 90q-35 -53 -77 -90.5t-83 -55.5t-74.5 -25t-64.5 -7q-123 0 -209 99q-15 15 -29 36q-13 -208 62 -364q9 -19 30 -51.5t25 -40.5q1 -2 7.5 -12.5t8.5 -14.5t7 -13t6.5 -14.5t4.5 -13.5t4 -15.5t1 -15.5q0 -37 -25 -61.5t-63 -24.5q-21 0 -47 13 q-41 20 -68 80q-53 112 -53 352q0 211 22 348q-2 14 -6 40.5t-7 48t-5 40.5q-23 180 -23 363z" />
<glyph unicode="&#xb6;" horiz-adv-x="1366" d="M180 1038q0 137 72.5 241.5t202.5 145.5q77 21 178 21h471v-111h-70v-1677h-119v1677h-294v-1677h-119v995q-76 13 -119 35q-100 45 -151.5 139.5t-51.5 210.5z" />
<glyph unicode="&#xb7;" horiz-adv-x="382" d="M55 598q0 39 15 64q12 24 44 49.5t79 25.5q24 0 49 -10q41 -18 64.5 -52t23.5 -77q0 -22 -11 -51q-8 -21 -20.5 -38.5t-43 -34.5t-69.5 -15q-58 1 -94.5 40.5t-36.5 98.5z" />
<glyph unicode="&#xb8;" horiz-adv-x="555" d="M-31 -330l197 262l131 -104l-217 -246z" />
<glyph unicode="&#xbb;" horiz-adv-x="724" d="M12 143l228 308l-228 311l115 76l264 -387l-264 -383zM309 141l240 310l-240 315l111 82l280 -397l-280 -392z" />
<glyph unicode="&#xbf;" horiz-adv-x="854" d="M59 283q0 68 27 127q18 41 42 72.5t60 59t61.5 43t74.5 42.5l18 10q56 32 88.5 60t50.5 73q0 1 2.5 9t4.5 15.5t4 18.5t2 21q0 11 -6 39.5t-19 48.5q-28 41 -86 41q-124 0 -129 -185h-168q-6 112 55 203q81 119 242 119q65 0 123 -25q49 -20 82.5 -55t47.5 -74.5 t18.5 -66.5t4.5 -52q0 -103 -55 -178q-22 -29 -55 -55.5t-105 -75.5l-24 -16q-68 -43 -93 -60t-49 -42.5t-38 -57.5q-17 -51 -17 -72q0 -61 37 -98q44 -41 117 -41t118.5 52t45.5 126q0 21 -2 31h168q-3 -80 -19.5 -138t-58.5 -108q-89 -106 -250 -106q-59 0 -113 16 q-94 31 -150.5 106t-56.5 173zM240 1329q0 60 40 98.5t99 36.5q56 -1 91.5 -41t35.5 -98q0 -32 -12 -61q-20 -41 -55.5 -56.5t-63.5 -15.5q-57 0 -96 39.5t-39 97.5z" />
<glyph unicode="&#xc0;" horiz-adv-x="1280" d="M0 0l637 1483h14l629 -1483h-197l-174 416h-540l-174 -416h-195zM426 1706l96 152l320 -222l-76 -118zM434 569h408l-103 254q-54 147 -98 252q-9 -23 -28.5 -70t-28.5 -71z" />
<glyph unicode="&#xc1;" horiz-adv-x="1280" d="M0 0l637 1483h14l629 -1483h-197l-174 416h-540l-174 -416h-195zM434 569h408l-103 254q-54 147 -98 252q-9 -23 -28.5 -70t-28.5 -71zM449 1636l319 222l92 -150l-336 -188z" />
<glyph unicode="&#xc2;" horiz-adv-x="1280" d="M0 0l637 1483h14l629 -1483h-197l-174 416h-540l-174 -416h-195zM330 1628l309 221l319 -223l-90 -96l-227 139l-223 -139zM434 569h408l-103 254q-54 147 -98 252q-9 -23 -28.5 -70t-28.5 -71z" />
<glyph unicode="&#xc3;" horiz-adv-x="1280" d="M0 0l637 1483h14l629 -1483h-197l-174 416h-540l-174 -416h-195zM293 1630q19 58 53 109q43 55 88 72q25 10 53 10q58 0 158 -60l21 -10q5 -3 17 -9.5t16.5 -9l13.5 -7.5t13 -7t11.5 -5.5t12 -5t10.5 -3t11.5 -2t10.5 -0.5q30 0 48.5 17.5t35.5 49.5l23 41l117 -55 q-14 -32 -37 -65q-75 -123 -189 -123q-76 0 -164 59l-16 8q-78 47 -104 47q-24 0 -38.5 -16t-39.5 -61l-12 -25zM434 569h408l-103 254q-54 147 -98 252q-9 -23 -28.5 -70t-28.5 -71z" />
<glyph unicode="&#xc4;" horiz-adv-x="1280" d="M0 0l637 1483h14l629 -1483h-197l-174 416h-540l-174 -416h-195zM135 1339q0 47 34 81t81 36q48 -2 81.5 -35t33.5 -82t-36.5 -83t-84.5 -31q-45 1 -77 35t-32 79zM434 569h408l-103 254q-45 107 -53 129q-24 62 -45 123q-9 -23 -28.5 -70t-28.5 -71zM915 1341 q0 48 34 81.5t83 33.5q47 0 81 -35t34 -84q-1 -46 -33 -77t-78 -33q-50 -3 -85.5 30t-35.5 84z" />
<glyph unicode="&#xc5;" horiz-adv-x="1280" d="M0 0l637 1483h14l629 -1483h-197l-174 416h-540l-174 -416h-195zM434 569h408l-103 254q-54 147 -98 252q-9 -23 -28.5 -70t-28.5 -71zM453 1714q0 81 56.5 138t135.5 57q80 0 136.5 -56t56.5 -135q0 -52 -27 -98q-26 -46 -71.5 -72t-96.5 -26q-51 6 -84 20 q-61 31 -83.5 80t-22.5 92zM553 1714q0 -38 26 -64t66 -26q38 0 65 26t27 64t-28 66t-66 28q-39 0 -64.5 -27t-25.5 -67z" />
<glyph unicode="&#xc6;" horiz-adv-x="1921" d="M0 0l618 1446h777l75 -172h-657l168 -408h578l69 -161h-577l225 -539h590l73 -166h-800l-172 420h-594l-176 -420h-197zM444 592h449l-121 301q-9 25 -27.5 75t-27.5 76q-17 53 -45 150q-33 -111 -66 -199q-16 -47 -84 -215z" />
<glyph unicode="&#xc7;" horiz-adv-x="1280" d="M78 727q0 141 45 272q73 215 252.5 343t406.5 128q165 0 320 -61q16 -5 74 -33v-209q-75 44 -80 47q-153 86 -305 86q-195 0 -332 -124q-91 -82 -140 -204t-49 -249t49 -242q64 -154 196 -245t296 -91q80 0 164.5 27t150.5 74q27 20 72 65v-227q-63 -33 -68 -35 q-55 -26 -147.5 -50t-196.5 -24q-258 0 -450 166q-43 37 -82 83.5t-82 118.5t-68.5 171.5t-25.5 212.5zM504 -330l194 262l133 -104l-219 -246z" />
<glyph unicode="&#xc8;" horiz-adv-x="980" d="M123 0v1446h756v-172h-572v-406h565v-161h-565v-539h578v-168h-762zM276 1706l97 152l319 -222l-76 -118z" />
<glyph unicode="&#xc9;" horiz-adv-x="980" d="M123 0v1446h756v-172h-572v-406h565v-161h-565v-539h578v-168h-762zM299 1636l319 222l93 -150l-336 -188z" />
<glyph unicode="&#xca;" horiz-adv-x="980" d="M123 0v1446h756v-172h-572v-406h565v-161h-565v-539h578v-168h-762zM180 1628l309 221l320 -223l-90 -96l-227 139l-224 -139z" />
<glyph unicode="&#xcb;" horiz-adv-x="980" d="M123 0v1446h756v-172h-572v-406h565v-161h-565v-539h578v-168h-762zM193 1690q1 47 36.5 81.5t81.5 34.5q48 0 83 -34.5t34 -83.5q0 -50 -36.5 -84t-84.5 -31q-46 2 -79.5 36t-34.5 81zM551 1688q0 50 34.5 84t82.5 34q24 -2 65 -18q53 -38 53 -100q0 -47 -33 -80 t-81 -35q-50 -2 -85.5 32t-35.5 83z" />
<glyph unicode="&#xcc;" horiz-adv-x="425" d="M0 1706l96 152l318 -222l-76 -118zM121 0v1446h184v-1446h-184z" />
<glyph unicode="&#xcd;" horiz-adv-x="425" d="M23 1636l319 222l92 -150l-336 -188zM121 0v1446h184v-1446h-184z" />
<glyph unicode="&#xce;" horiz-adv-x="425" d="M-96 1628l309 221l319 -223l-90 -96l-229 139l-221 -139zM121 0v1446h184v-1446h-184z" />
<glyph unicode="&#xcf;" horiz-adv-x="425" d="M-84 1690q0 47 36.5 81.5t82.5 34.5q48 0 82.5 -34.5t34.5 -83.5q0 -51 -36.5 -84.5t-86.5 -30.5q-45 2 -79 36t-34 81zM121 0v1446h184v-1446h-184zM274 1688q0 51 33.5 84.5t83.5 33.5q32 -2 64 -18q11 -7 22 -17.5t22 -33.5t11 -49q0 -47 -33.5 -80t-81.5 -35 q-51 -1 -86 32t-35 83z" />
<glyph unicode="&#xd1;" horiz-adv-x="1492" d="M123 0v1477h43l930 -994q17 -19 50.5 -56.5t51.5 -55.5v1075h172v-1477h-45l-954 1030q-48 52 -70 80v-1079h-178zM399 1630q19 56 56 109q55 82 139 82q56 0 160 -60l20 -10q35 -21 48 -28t32 -14t35 -7q30 0 48.5 17.5t35.5 49.5l22 41l117 -55q-14 -32 -37 -65 q-75 -123 -188 -123q-75 0 -164 59l-16 8q-78 47 -105 47q-23 0 -38.5 -16.5t-39.5 -60.5l-12 -25z" />
<glyph unicode="&#xd2;" horiz-adv-x="1662" d="M78 723q0 42 5 87t20.5 112.5t52 141.5t90.5 140q29 35 61.5 66.5t87.5 69.5t116 65.5t146.5 46t178.5 18.5q304 0 510 -184q62 -55 108.5 -123.5t71 -127.5t39.5 -123t18.5 -103.5t3.5 -75.5q0 -160 -63 -305q-90 -211 -276.5 -330.5t-418.5 -122.5q-169 0 -307 58 q-139 57 -240 163.5t-152.5 241.5t-51.5 285zM270 725q0 -217 125 -377q27 -35 61.5 -66t90 -65.5t133.5 -54t168 -15.5q183 6 328 117q35 27 68 63t69 92.5t58 137t22 172.5q0 133 -45 242q-65 156 -204.5 242.5t-312.5 86.5q-202 0 -358 -124q-65 -55 -109.5 -123.5 t-62.5 -134t-24.5 -109.5t-6.5 -84zM618 1706l97 152l317 -222l-76 -118z" />
<glyph unicode="&#xd3;" horiz-adv-x="1662" d="M78 723q0 42 5 87t20.5 112.5t52 141.5t90.5 140q29 35 61.5 66.5t87.5 69.5t116 65.5t146.5 46t178.5 18.5q304 0 510 -184q62 -55 108.5 -123.5t71 -127.5t39.5 -123t18.5 -103.5t3.5 -75.5q0 -160 -63 -305q-90 -211 -276.5 -330.5t-418.5 -122.5q-169 0 -307 58 q-139 57 -240 163.5t-152.5 241.5t-51.5 285zM270 725q0 -217 125 -377q27 -35 61.5 -66t90 -65.5t133.5 -54t168 -15.5q183 6 328 117q35 27 68 63t69 92.5t58 137t22 172.5q0 133 -45 242q-65 156 -204.5 242.5t-312.5 86.5q-202 0 -358 -124q-65 -55 -109.5 -123.5 t-62.5 -134t-24.5 -109.5t-6.5 -84zM641 1636l320 222l92 -150l-336 -188z" />
<glyph unicode="&#xd4;" horiz-adv-x="1662" d="M78 723q0 42 5 87t20.5 112.5t52 141.5t90.5 140q29 35 61.5 66.5t87.5 69.5t116 65.5t146.5 46t178.5 18.5q304 0 510 -184q62 -55 108.5 -123.5t71 -127.5t39.5 -123t18.5 -103.5t3.5 -75.5q0 -160 -63 -305q-90 -211 -276.5 -330.5t-418.5 -122.5q-169 0 -307 58 q-139 57 -240 163.5t-152.5 241.5t-51.5 285zM270 725q0 -217 125 -377q27 -35 61.5 -66t90 -65.5t133.5 -54t168 -15.5q183 6 328 117q35 27 68 63t69 92.5t58 137t22 172.5q0 133 -45 242q-65 156 -204.5 242.5t-312.5 86.5q-202 0 -358 -124q-65 -55 -109.5 -123.5 t-62.5 -134t-24.5 -109.5t-6.5 -84zM522 1628l309 221l320 -223l-90 -96l-227 139l-224 -139z" />
<glyph unicode="&#xd5;" horiz-adv-x="1662" d="M78 723q0 42 5 87t20.5 112.5t52 141.5t90.5 140q29 35 61.5 66.5t87.5 69.5t116 65.5t146.5 46t178.5 18.5q304 0 510 -184q62 -55 108.5 -123.5t71 -127.5t39.5 -123t18.5 -103.5t3.5 -75.5q0 -160 -63 -305q-90 -211 -276.5 -330.5t-418.5 -122.5q-169 0 -307 58 q-139 57 -240 163.5t-152.5 241.5t-51.5 285zM270 725q0 -217 125 -377q27 -35 61.5 -66t90 -65.5t133.5 -54t168 -15.5q183 6 328 117q35 27 68 63t69 92.5t58 137t22 172.5q0 133 -45 242q-65 156 -204.5 242.5t-312.5 86.5q-202 0 -358 -124q-65 -55 -109.5 -123.5 t-62.5 -134t-24.5 -109.5t-6.5 -84zM483 1630l9 22q10 22 22 45.5t25 41.5q43 55 87 72q25 10 52 10q60 0 160 -60l20 -10q74 -42 97 -47q10 -2 20 -2q21 0 38 11.5t24.5 22t21.5 33.5l22 41l117 -55q-13 -26 -37 -65q-77 -123 -190 -123q-83 0 -162 59l-16 8 q-78 47 -105 47q-24 0 -38.5 -16t-39.5 -61l-12 -25z" />
<glyph unicode="&#xd6;" horiz-adv-x="1662" d="M35 1378q0 47 35.5 81t83.5 34t82 -34t34 -83q-1 -52 -40.5 -86.5t-90.5 -29.5q-42 4 -73 39.5t-31 78.5zM78 723q0 42 5 87t20.5 112.5t52 141.5t90.5 140q29 35 61.5 66.5t87.5 69.5t116 65.5t146.5 46t178.5 18.5q304 0 510 -184q62 -55 108.5 -123.5t71 -127.5 t39.5 -123t18.5 -103.5t3.5 -75.5q0 -160 -63 -305q-90 -211 -276.5 -330.5t-418.5 -122.5q-169 0 -307 58q-139 57 -240 163.5t-152.5 241.5t-51.5 285zM270 725q0 -217 125 -377q27 -35 61.5 -66t90 -65.5t133.5 -54t168 -15.5q183 6 328 117q35 27 68 63t69 92.5t58 137 t22 172.5q0 133 -45 242q-65 156 -204.5 242.5t-312.5 86.5q-202 0 -358 -124q-65 -55 -109.5 -123.5t-62.5 -134t-24.5 -109.5t-6.5 -84zM1397 1378q0 47 36 82t83 35q46 0 80 -36t34 -83q-2 -46 -34 -79.5t-76 -34.5q-50 -2 -86.5 32.5t-36.5 83.5z" />
<glyph unicode="&#xd7;" horiz-adv-x="1366" d="M158 188l411 410l-411 412l112 114l414 -411l410 411l114 -114l-409 -412l409 -410l-114 -114l-410 409l-414 -409z" />
<glyph unicode="&#xd8;" horiz-adv-x="1662" d="M66 53l180 178q-41 59 -64 99q-29 50 -47 87t-37.5 118t-19.5 172q0 189 79.5 350.5t229.5 267.5q30 21 67.5 41.5t96.5 46t134.5 41.5t152.5 16q257 0 495 -180l185 180l84 -86l-183 -180q31 -42 51 -75.5t51 -97t47.5 -143t16.5 -167.5q0 -111 -27.5 -210.5t-73 -171 t-84.5 -116t-81 -80.5q-202 -168 -504 -168q-90 0 -168.5 16t-140 46t-96 51.5t-76.5 54.5l-182 -174zM262 717q0 -192 115 -363l833 815q-40 34 -41 35q-51 39 -133.5 69t-193.5 30q-254 0 -417 -166t-163 -420zM457 266q30 -26 43 -35q46 -35 133 -64.5t194 -29.5 q71 0 137.5 15.5t116 41t81.5 47t57 44.5q30 26 58.5 62t58.5 90.5t48.5 130t18.5 159.5q0 193 -113 352z" />
<glyph unicode="&#xd9;" horiz-adv-x="1323" d="M123 551v895h184v-893q3 -107 14.5 -165t40.5 -101q37 -59 99 -90q86 -47 207 -47q136 0 221 63q47 33 76 75.5t40.5 97t14.5 97t2 109.5v854h178v-885q0 -157 -16 -227q-42 -174 -189 -271q-135 -88 -348 -88q-28 0 -53.5 1.5t-72 9t-86.5 20t-88 39t-85 61.5t-69.5 91 t-49.5 125q-17 70 -20 229zM449 1706l94 152l319 -222l-76 -118z" />
<glyph unicode="&#xda;" horiz-adv-x="1323" d="M123 551v895h184v-893q3 -107 14.5 -165t40.5 -101q37 -59 99 -90q86 -47 207 -47q136 0 221 63q47 33 76 75.5t40.5 97t14.5 97t2 109.5v854h178v-885q0 -157 -16 -227q-42 -174 -189 -271q-135 -88 -348 -88q-28 0 -53.5 1.5t-72 9t-86.5 20t-88 39t-85 61.5t-69.5 91 t-49.5 125q-17 70 -20 229zM471 1636l317 222l93 -150l-336 -188z" />
<glyph unicode="&#xdb;" horiz-adv-x="1323" d="M123 551v895h184v-893q3 -107 14.5 -165t40.5 -101q37 -59 99 -90q86 -47 207 -47q136 0 221 63q47 33 76 75.5t40.5 97t14.5 97t2 109.5v854h178v-885q0 -157 -16 -227q-42 -174 -189 -271q-135 -88 -348 -88q-28 0 -53.5 1.5t-72 9t-86.5 20t-88 39t-85 61.5t-69.5 91 t-49.5 125q-17 70 -20 229zM352 1628l310 221l317 -223l-88 -96l-229 139l-222 -139z" />
<glyph unicode="&#xdc;" horiz-adv-x="1323" d="M123 551v895h184v-893q3 -107 14.5 -165t40.5 -101q37 -59 99 -90q86 -47 207 -47q136 0 221 63q47 33 76 75.5t40.5 97t14.5 97t2 109.5v854h178v-885q0 -157 -16 -227q-42 -174 -189 -271q-135 -88 -348 -88q-28 0 -53.5 1.5t-72 9t-86.5 20t-88 39t-85 61.5t-69.5 91 t-49.5 125q-17 70 -20 229zM399 1360q0 45 32 76.5t77 31.5q43 0 75.5 -32.5t32.5 -77.5q0 -44 -33 -76.5t-77 -32.5q-43 1 -75 34.5t-32 76.5zM707 1362q0 28 12 49q30 57 98 57q39 0 66 -22q41 -34 41 -86q0 -44 -31.5 -75.5t-75.5 -33.5t-77 31t-33 80z" />
<glyph unicode="&#xdf;" horiz-adv-x="1110" d="M31 754v151h125v162q-1 73 0 111.5t14 96t41 103.5q98 172 330 172q91 0 170 -34q102 -45 158.5 -138.5t56.5 -208.5q0 -68 -21 -131t-67 -100q-31 -26 -97 -53q74 -12 131 -47q68 -41 117 -129t49 -226q0 -201 -108 -333q-126 -152 -348 -152q-32 0 -90 4v154 q40 -6 83 -6q119 0 195 73q94 90 94 254q0 149 -84 225q-52 46 -110 60q-42 10 -103 10h-88l2 152q66 -8 127 10q71 23 112.5 85.5t39.5 137.5q0 30 -4 55q-6 27 -18.5 53.5t-37 57t-69.5 49.5t-103 19q-78 0 -127 -41q-50 -42 -65 -109.5t-12 -200.5v-1038h-168v752h-125z " />
<glyph unicode="&#xe0;" d="M66 440q0 173 96 303q19 25 43.5 48.5t65.5 53t99 47.5t122 17q149 0 262 -100q8 -6 45 -43v127h162v-893h-162v141q-24 -36 -41 -53q-41 -41 -109.5 -73.5t-163.5 -32.5q-101 0 -188 43q-61 30 -107 78.5t-68.5 94.5t-36 100t-16.5 84.5t-3 57.5zM236 442 q0 -130 70.5 -216t199.5 -95q63 -2 110 14q99 31 146 111t47 190q0 82 -18 127q-29 87 -104 139t-167 52q-58 0 -117 -27q-29 -13 -55.5 -34.5t-53 -56t-42.5 -87.5t-16 -117zM305 1243l131 107l258 -271l-94 -78z" />
<glyph unicode="&#xe1;" d="M66 440q0 173 96 303q19 25 43.5 48.5t65.5 53t99 47.5t122 17q149 0 262 -100q8 -6 45 -43v127h162v-893h-162v141q-24 -36 -41 -53q-41 -41 -109.5 -73.5t-163.5 -32.5q-101 0 -188 43q-61 30 -107 78.5t-68.5 94.5t-36 100t-16.5 84.5t-3 57.5zM236 442 q0 -130 70.5 -216t199.5 -95q63 -2 110 14q99 31 146 111t47 190q0 82 -18 127q-29 87 -104 139t-167 52q-58 0 -117 -27q-29 -13 -55.5 -34.5t-53 -56t-42.5 -87.5t-16 -117zM379 1081l258 267l131 -103l-295 -244z" />
<glyph unicode="&#xe2;" d="M66 440q0 173 96 303q19 25 43.5 48.5t65.5 53t99 47.5t122 17q149 0 262 -100q8 -6 45 -43v127h162v-893h-162v141q-24 -36 -41 -53q-41 -41 -109.5 -73.5t-163.5 -32.5q-101 0 -188 43q-61 30 -107 78.5t-68.5 94.5t-36 100t-16.5 84.5t-3 57.5zM236 442 q0 -130 70.5 -216t199.5 -95q63 -2 110 14q99 31 146 111t47 190q0 82 -18 127q-29 87 -104 139t-167 52q-58 0 -117 -27q-29 -13 -55.5 -34.5t-53 -56t-42.5 -87.5t-16 -117zM250 1090l282 258l275 -252l-90 -92l-185 163l-194 -166z" />
<glyph unicode="&#xe3;" d="M66 440q0 173 96 303q19 25 43.5 48.5t65.5 53t99 47.5t122 17q149 0 262 -100q8 -6 45 -43v127h162v-893h-162v141q-24 -36 -41 -53q-41 -41 -109.5 -73.5t-163.5 -32.5q-101 0 -188 43q-61 30 -107 78.5t-68.5 94.5t-36 100t-16.5 84.5t-3 57.5zM186 1137q16 47 54 108 q43 55 88 72q25 10 53 10q60 0 158 -59l20 -11q46 -28 70 -38.5t47 -10.5q21 0 38.5 12t24 22t21.5 34l22 41l117 -57q-6 -9 -18 -31.5t-19 -34.5q-74 -121 -190 -121q-18 0 -37.5 3.5t-34 8.5t-31.5 13t-26 13t-20.5 11.5t-12.5 7.5l-16 11q-78 47 -105 47 q-24 0 -38.5 -16.5t-39.5 -63.5l-12 -23zM236 442q0 -130 70.5 -216t199.5 -95q63 -2 110 14q99 31 146 111t47 190q0 82 -18 127q-29 87 -104 139t-167 52q-58 0 -117 -27q-29 -13 -55.5 -34.5t-53 -56t-42.5 -87.5t-16 -117z" />
<glyph unicode="&#xe4;" d="M66 440q0 90 30 178q47 130 153 210.5t243 80.5q102 0 190 -51q38 -22 57 -37q25 -20 60 -55v127h162v-893h-162v141q-15 -27 -39 -51q-37 -41 -107.5 -74.5t-167.5 -33.5q-106 0 -192 45q-60 30 -104.5 78t-67 93.5t-36 98.5t-16.5 84t-3 59zM236 442q0 -65 18 -120 q19 -57 52 -97t72.5 -58.5t68.5 -26t59 -9.5q58 -3 110 14q35 11 66 30.5t61.5 53.5t48 89.5t17.5 127.5q0 79 -18 127q-29 87 -104 139t-165 52q-64 0 -119 -25q-28 -13 -54.5 -35t-53.5 -57t-43 -88t-16 -117zM244 1229q2 47 37 83t81 36q48 -2 83.5 -37t35.5 -82 q-1 -51 -37 -85t-86 -32q-44 2 -78.5 36.5t-35.5 80.5zM604 1229q0 49 34.5 83t84.5 34q36 0 61 -19q32 -19 44 -47.5t12 -50.5q0 -47 -34 -81t-81 -36q-50 -2 -85.5 33t-35.5 84z" />
<glyph unicode="&#xe5;" d="M66 440q0 173 96 303q19 25 43.5 48.5t65.5 53t99 47.5t122 17q149 0 262 -100q8 -6 45 -43v127h162v-893h-162v141q-24 -36 -41 -53q-41 -41 -109.5 -73.5t-163.5 -32.5q-101 0 -188 43q-61 30 -107 78.5t-68.5 94.5t-36 100t-16.5 84.5t-3 57.5zM236 442 q0 -130 70.5 -216t199.5 -95q63 -2 110 14q99 31 146 111t47 190q0 82 -18 127q-29 87 -104 139t-167 52q-58 0 -117 -27q-29 -13 -55.5 -34.5t-53 -56t-42.5 -87.5t-16 -117zM356 1192q0 32 15 70t40 65t52 38.5t47.5 16t38.5 4.5q81 0 136.5 -55t55.5 -135q0 -56 -28 -104 q-23 -37 -59 -59t-61.5 -27.5t-45.5 -4.5q-37 0 -76 17q-35 16 -59.5 40.5t-35.5 50.5t-15.5 46t-4.5 37zM457 1192q2 -39 27.5 -64.5t64.5 -25.5q40 0 66 26t26 64q0 39 -28 67t-66 27q-20 0 -43 -10q-47 -27 -47 -84z" />
<glyph unicode="&#xe6;" horiz-adv-x="1536" d="M53 285q0 132 98 216.5t232 84.5q99 0 186 -49q15 -7 49 -31q7 49 -2 100q-18 80 -81.5 122t-147.5 42q-96 -2 -227 -59q-40 -22 -54 -31l13 170q139 59 282 59q190 0 279 -106q7 -8 13.5 -18t14 -22t11.5 -18q33 44 67 72q41 34 111 63t162 29q31 0 65 -5.5t84 -20.5 t99.5 -53t85.5 -93q19 -30 33.5 -65t22.5 -63.5t12.5 -64t6 -54t2 -46t0.5 -28.5h-677q11 -79 22 -109q31 -80 100 -128t154 -48q56 1 107 23.5t75 43.5t43 44q21 24 41 57l119 -90q-33 -54 -74 -92q-27 -27 -63.5 -53.5t-108.5 -54t-147 -27.5q-139 0 -262 86 q-31 20 -90 79q-30 -40 -68 -73q-44 -37 -101.5 -59.5t-92.5 -27.5t-64 -5q-63 0 -123 22q-95 33 -151 107t-56 174zM221 287q0 -49 25 -84q25 -38 70.5 -57t95.5 -19q65 0 119 37t79 98q11 27 15 66q-22 32 -64 63q-66 49 -158 49q-38 0 -65 -10q-13 -3 -29.5 -11.5 t-38 -24.5t-35.5 -44t-14 -63zM803 553h500q-6 41 -33 94q-69 131 -219 131q-20 0 -41 -3.5t-51.5 -13.5t-60.5 -34.5t-52 -60.5q-26 -41 -43 -113z" />
<glyph unicode="&#xe7;" horiz-adv-x="811" d="M66 438q0 37 6.5 80t35 112.5t76.5 125.5q20 23 47 45.5t70 49t102.5 42.5t124.5 16q125 0 217 -47q17 -7 31 -18v-170q-7 4 -21.5 13t-21.5 13q-108 52 -194 52q-128 0 -215 -87t-86 -216q0 -132 84.5 -219t216.5 -87q46 0 85.5 10t70 28.5t45.5 30.5t36 32v-195 q-125 -67 -250 -67q-172 0 -299 104q-76 62 -118.5 156.5t-42.5 195.5zM268 -330l197 262l131 -104l-219 -246z" />
<glyph unicode="&#xe8;" horiz-adv-x="980" d="M66 444q0 91 24 166q43 138 151.5 218.5t254.5 80.5q170 0 284 -108q129 -124 129 -336q0 -8 -1 -24t-1 -23l-674 -2q0 -42 9 -84q23 -91 98.5 -147t169.5 -56q44 0 92 16q37 14 71 41t50 47t49 64l121 -92q-34 -52 -57 -78q-132 -145 -330 -145q-113 0 -199 45 q-31 15 -60.5 35.5t-63.5 56.5t-59 80t-41.5 108t-16.5 137zM244 557h499q-5 48 -18 76q-8 21 -23.5 43t-41.5 47.5t-67.5 42t-90.5 16.5q-22 0 -45.5 -4t-57 -16t-65.5 -40.5t-55 -70.5q-22 -38 -35 -94zM262 1243l131 107l258 -271l-94 -78z" />
<glyph unicode="&#xe9;" horiz-adv-x="980" d="M66 444q0 91 24 166q43 138 151.5 218.5t254.5 80.5q170 0 284 -108q129 -124 129 -336q0 -8 -1 -24t-1 -23l-674 -2q0 -42 9 -84q23 -91 98.5 -147t169.5 -56q44 0 92 16q37 14 71 41t50 47t49 64l121 -92q-34 -52 -57 -78q-132 -145 -330 -145q-113 0 -199 45 q-31 15 -60.5 35.5t-63.5 56.5t-59 80t-41.5 108t-16.5 137zM244 557h499q-5 48 -18 76q-8 21 -23.5 43t-41.5 47.5t-67.5 42t-90.5 16.5q-22 0 -45.5 -4t-57 -16t-65.5 -40.5t-55 -70.5q-22 -38 -35 -94zM336 1081l258 267l131 -103l-295 -244z" />
<glyph unicode="&#xea;" horiz-adv-x="980" d="M66 444q0 91 24 166q43 138 151.5 218.5t254.5 80.5q170 0 284 -108q129 -124 129 -336q0 -8 -1 -24t-1 -23l-674 -2q0 -42 9 -84q23 -91 98.5 -147t169.5 -56q44 0 92 16q37 14 71 41t50 47t49 64l121 -92q-34 -52 -57 -78q-132 -145 -330 -145q-113 0 -199 45 q-31 15 -60.5 35.5t-63.5 56.5t-59 80t-41.5 108t-16.5 137zM209 1090l280 258l277 -252l-92 -92l-185 163l-194 -166zM244 557h499q-5 48 -18 76q-8 21 -23.5 43t-41.5 47.5t-67.5 42t-90.5 16.5q-22 0 -45.5 -4t-57 -16t-65.5 -40.5t-55 -70.5q-22 -38 -35 -94z" />
<glyph unicode="&#xeb;" horiz-adv-x="980" d="M66 444q0 91 24 166q43 138 151.5 218.5t254.5 80.5q170 0 284 -108q129 -124 129 -336q0 -8 -1 -24t-1 -23l-674 -2q0 -42 9 -84q23 -91 98.5 -147t169.5 -56q44 0 92 16q37 14 71 41t50 47t49 64l121 -92q-34 -52 -57 -78q-132 -145 -330 -145q-113 0 -199 45 q-31 15 -60.5 35.5t-63.5 56.5t-59 80t-41.5 108t-16.5 137zM197 1208q0 49 35.5 84t82.5 35q48 -2 83 -37t34 -82q0 -50 -36.5 -84t-86.5 -32q-44 1 -78 36.5t-34 79.5zM244 557h499q-5 48 -18 76q-8 21 -23.5 43t-41.5 47.5t-67.5 42t-90.5 16.5q-22 0 -45.5 -4t-57 -16 t-65.5 -40.5t-55 -70.5q-22 -38 -35 -94zM555 1208q0 50 33.5 83.5t83.5 33.5q34 0 57 -14q28 -15 45 -43t17 -60q0 -47 -33.5 -80.5t-81.5 -35.5q-51 -2 -86 31.5t-35 84.5z" />
<glyph unicode="&#xec;" horiz-adv-x="382" d="M-37 1243l131 107l258 -271l-94 -78zM106 0v893h173v-893h-173z" />
<glyph unicode="&#xed;" horiz-adv-x="382" d="M37 1081l258 267l131 -103l-293 -244zM106 0v893h173v-893h-173z" />
<glyph unicode="&#xee;" horiz-adv-x="382" d="M-90 1090l280 258l277 -252l-92 -92l-185 163l-194 -166zM106 0v893h173v-893h-173z" />
<glyph unicode="&#xef;" horiz-adv-x="382" d="M-102 1208q1 49 36.5 84t81.5 35q48 -2 83 -37t34 -82q0 -50 -36.5 -84t-86.5 -32q-44 1 -78 36.5t-34 79.5zM106 0v893h173v-893h-173zM256 1208q0 49 34.5 83t84.5 34q36 0 55 -14q29 -15 45.5 -42.5t16.5 -60.5q0 -47 -33.5 -80.5t-81.5 -35.5q-51 -2 -86 31.5 t-35 84.5z" />
<glyph unicode="&#xf1;" horiz-adv-x="980" d="M106 0v893h166v-117q18 16 64 53q108 82 231 82q78 0 136.5 -28.5t91.5 -61.5q34 -35 52.5 -83.5t22.5 -84.5t7 -98v-555h-168v526q2 60 -9 101q-5 20 -15 40t-29.5 44t-54 38.5t-79.5 14.5q-82 0 -148 -48t-89 -126q-13 -48 -13 -119v-471h-166zM143 1137q16 49 56 108 q55 82 139 82q57 0 160 -59l20 -11q44 -27 68 -38t47 -11q21 0 38 11.5t25.5 23.5t20.5 33l22 41l117 -57q-15 -29 -37 -66q-74 -121 -188 -121q-19 0 -38.5 3.5t-34.5 8.5t-32 13t-26 13t-20.5 11.5t-12.5 7.5l-16 11q-78 47 -105 47q-23 0 -38.5 -17t-39.5 -63l-12 -23z " />
<glyph unicode="&#xf2;" d="M66 440q0 34 5.5 73.5t30 103t64.5 116.5q44 56 99.5 94.5t110 54.5t91.5 21.5t70 5.5q43 0 89 -7.5t119.5 -42t128.5 -93.5q125 -128 125 -326q0 -110 -41 -198q-60 -126 -179 -194.5t-259 -65.5q-132 6 -231 63q-70 39 -118 97.5t-69 118t-28.5 102t-7.5 77.5zM240 444 q0 -76 36 -157q25 -46 62 -78t76 -46t65.5 -19.5t50.5 -6.5q61 0 119 25q28 13 54.5 31.5t56.5 51t48.5 84.5t18.5 115q0 90 -45 168q-13 21 -29.5 40.5t-46 45t-73 41t-92.5 15.5q-117 0 -209 -82q-92 -86 -92 -228zM305 1243l131 107l258 -271l-94 -78z" />
<glyph unicode="&#xf3;" d="M66 440q0 34 5.5 73.5t30 103t64.5 116.5q44 56 99.5 94.5t110 54.5t91.5 21.5t70 5.5q43 0 89 -7.5t119.5 -42t128.5 -93.5q125 -128 125 -326q0 -110 -41 -198q-60 -126 -179 -194.5t-259 -65.5q-132 6 -231 63q-70 39 -118 97.5t-69 118t-28.5 102t-7.5 77.5zM240 444 q0 -76 36 -157q25 -46 62 -78t76 -46t65.5 -19.5t50.5 -6.5q61 0 119 25q28 13 54.5 31.5t56.5 51t48.5 84.5t18.5 115q0 90 -45 168q-13 21 -29.5 40.5t-46 45t-73 41t-92.5 15.5q-117 0 -209 -82q-92 -86 -92 -228zM379 1081l258 267l131 -103l-295 -244z" />
<glyph unicode="&#xf4;" d="M66 440q0 34 5.5 73.5t30 103t64.5 116.5q44 56 99.5 94.5t110 54.5t91.5 21.5t70 5.5q43 0 89 -7.5t119.5 -42t128.5 -93.5q125 -128 125 -326q0 -110 -41 -198q-60 -126 -179 -194.5t-259 -65.5q-132 6 -231 63q-70 39 -118 97.5t-69 118t-28.5 102t-7.5 77.5zM240 444 q0 -76 36 -157q25 -46 62 -78t76 -46t65.5 -19.5t50.5 -6.5q61 0 119 25q28 13 54.5 31.5t56.5 51t48.5 84.5t18.5 115q0 90 -45 168q-13 21 -29.5 40.5t-46 45t-73 41t-92.5 15.5q-117 0 -209 -82q-92 -86 -92 -228zM250 1090l282 258l275 -252l-90 -92l-185 163l-194 -166 z" />
<glyph unicode="&#xf5;" d="M66 440q0 34 5.5 73.5t30 103t64.5 116.5q44 56 99.5 94.5t110 54.5t91.5 21.5t70 5.5q43 0 89 -7.5t119.5 -42t128.5 -93.5q125 -128 125 -326q0 -110 -41 -198q-60 -126 -179 -194.5t-259 -65.5q-132 6 -231 63q-70 39 -118 97.5t-69 118t-28.5 102t-7.5 77.5z M186 1137q16 47 54 108q43 55 88 72q25 10 53 10q60 0 158 -59l20 -11q46 -28 70 -38.5t47 -10.5q21 0 38.5 12t24 22t21.5 34l22 41l117 -57q-6 -9 -18 -31.5t-19 -34.5q-74 -121 -190 -121q-18 0 -37.5 3.5t-34 8.5t-31.5 13t-26 13t-20.5 11.5t-12.5 7.5l-16 11 q-78 47 -105 47q-24 0 -38.5 -16.5t-39.5 -63.5l-12 -23zM240 444q0 -76 36 -157q25 -46 62 -78t76 -46t65.5 -19.5t50.5 -6.5q61 0 119 25q28 13 54.5 31.5t56.5 51t48.5 84.5t18.5 115q0 90 -45 168q-13 21 -29.5 40.5t-46 45t-73 41t-92.5 15.5q-117 0 -209 -82 q-92 -86 -92 -228z" />
<glyph unicode="&#xf6;" d="M66 440q0 83 29.5 164t82.5 144q19 24 48 48t73.5 51.5t106.5 44.5t131 17q172 0 303 -108q159 -142 159 -361q0 -108 -38 -194q-59 -127 -179.5 -197t-261.5 -67q-40 1 -82 9t-103.5 30.5t-118.5 74t-95 125.5q-55 106 -55 219zM236 1229q0 47 36 83t82 36q48 -2 83 -37 t34 -82q0 -51 -36 -85t-87 -32q-44 2 -78 36.5t-34 80.5zM240 442q0 -131 82 -215q38 -41 94 -64.5t114 -25.5q50 0 103 19q23 8 46 20.5t50.5 36.5t48.5 54t35 75.5t14 99.5q0 97 -45 170q-13 21 -29.5 40.5t-46 45t-73 41t-92.5 15.5q-78 0 -146 -37q-50 -27 -84 -67 t-48 -82.5t-18.5 -71t-4.5 -54.5zM596 1229q0 50 34.5 83.5t82.5 33.5q38 0 63 -19q18 -9 36.5 -35.5t18.5 -62.5q0 -47 -33.5 -81t-80.5 -36q-51 -2 -86.5 33t-34.5 84z" />
<glyph unicode="&#xf7;" horiz-adv-x="1366" d="M0 514v162h1366v-162h-1366zM569 297q0 49 33.5 83t83.5 34q49 0 82 -33.5t33 -83.5q0 -49 -33.5 -82t-83.5 -31q-47 0 -81 33t-34 80zM569 891q0 49 33.5 83t83.5 34q49 -1 82 -35t33 -84q0 -46 -34 -79.5t-81 -33.5q-50 2 -83.5 34t-33.5 81z" />
<glyph unicode="&#xf8;" d="M57 -8l121 135q-59 84 -87 155t-28 160q0 104 41 195q30 70 78.5 123t96 80.5t102.5 44t90 20.5t66 4q158 0 276 -88l117 129l71 -67l-114 -127q114 -136 114 -310q0 -107 -43 -202q-15 -31 -34.5 -61.5t-56.5 -68.5t-81.5 -65.5t-111 -47t-142.5 -19.5q-122 0 -227 51 q-27 15 -51 30l-125 -137zM223 438q0 -94 35 -155q8 -13 29 -37l424 463q-5 3 -14.5 9t-14.5 9q-60 35 -143 35q-67 0 -131 -27q-60 -25 -100.5 -67t-57 -89t-22 -79t-5.5 -62zM358 178q22 -13 29 -16q53 -31 137 -31q121 0 203 68q115 91 115 239q0 79 -31 150 q-8 17 -31 53z" />
<glyph unicode="&#xf9;" horiz-adv-x="980" d="M106 426v467h166v-444q3 -145 21 -193t66 -85.5t133 -37.5q72 0 124 35q31 22 51 50.5t28 67.5t10.5 66t3.5 74v467h168v-455q0 -58 -2 -96t-11 -88t-26 -85t-48.5 -71t-76.5 -61q-98 -55 -224 -55q-134 0 -229 59q-41 26 -70.5 61t-45 68.5t-24.5 81.5t-11 83.5t-3 90.5 zM262 1243l131 107l258 -271l-94 -78z" />
<glyph unicode="&#xfa;" horiz-adv-x="980" d="M106 426v467h166v-444q3 -145 21 -193t66 -85.5t133 -37.5q72 0 124 35q31 22 51 50.5t28 67.5t10.5 66t3.5 74v467h168v-455q0 -58 -2 -96t-11 -88t-26 -85t-48.5 -71t-76.5 -61q-98 -55 -224 -55q-134 0 -229 59q-41 26 -70.5 61t-45 68.5t-24.5 81.5t-11 83.5t-3 90.5 zM336 1081l258 267l131 -103l-295 -244z" />
<glyph unicode="&#xfb;" horiz-adv-x="980" d="M106 426v467h166v-444q3 -145 21 -193t66 -85.5t133 -37.5q72 0 124 35q31 22 51 50.5t28 67.5t10.5 66t3.5 74v467h168v-455q0 -58 -2 -96t-11 -88t-26 -85t-48.5 -71t-76.5 -61q-98 -55 -224 -55q-134 0 -229 59q-41 26 -70.5 61t-45 68.5t-24.5 81.5t-11 83.5t-3 90.5 zM209 1090l280 258l277 -252l-92 -92l-185 163l-194 -166z" />
<glyph unicode="&#xfc;" horiz-adv-x="980" d="M106 426v467h166v-444q3 -150 25 -203q20 -44 67 -78.5t128 -34.5q78 0 133 41q38 29 58 75.5t23 81.5t3 95v467h168v-455q0 -58 -2 -96t-11 -88t-26 -85t-48.5 -71t-76.5 -61q-98 -55 -224 -55q-132 0 -229 59q-41 26 -70.5 61t-45.5 69t-25 80.5t-11 84t-2 90.5z M195 1229q0 47 35.5 82t80.5 37q49 -1 84 -36.5t35 -82.5q0 -50 -36.5 -84.5t-86.5 -32.5q-44 2 -78 36.5t-34 80.5zM551 1229q1 50 36 83.5t83 33.5q41 0 73 -25q43 -34 43 -92q0 -47 -33.5 -81t-80.5 -36q-48 -2 -84.5 33t-36.5 84z" />
<glyph unicode="&#xff;" horiz-adv-x="937" d="M0 893h195l157 -303q106 -208 140 -277q65 143 116 246l158 334h172l-610 -1284h-174l245 518zM176 1208q0 49 36 84t83 35q46 -2 81.5 -37t35.5 -82q-1 -51 -37 -84.5t-86 -31.5q-45 1 -79 36t-34 80zM532 1208q0 49 34.5 83t84.5 34q35 0 58 -14q28 -15 44 -43t15 -60 q0 -47 -33.5 -80.5t-79.5 -35.5q-51 -2 -87 31.5t-36 84.5z" />
<glyph unicode="&#x152;" horiz-adv-x="2174" d="M78 713q0 43 5.5 89.5t21 117.5t54 148.5t95.5 145.5q56 67 126 117t130.5 75.5t127.5 41t107.5 19t79.5 3.5q269 0 461 -157q17 -15 35 -33t31.5 -33.5t15.5 -17.5v221h754v-170h-574v-414h574v-161h-574v-537h574v-168h-754v229q-39 -51 -61 -71q-92 -89 -225.5 -136 t-268.5 -47q-281 0 -483 170q-41 35 -78.5 79t-80 114t-68 167.5t-25.5 207.5zM272 709q0 -116 39 -215q62 -158 199 -253t307 -96q120 -2 234 48q160 68 250 213t90 323q0 116 -50 244q-69 153 -208.5 238t-309.5 85q-37 0 -76 -5.5t-96.5 -21t-118 -53.5t-110.5 -94 q-72 -82 -111 -192t-39 -221z" />
<glyph unicode="&#x153;" horiz-adv-x="1748" d="M66 438q0 38 6 80t33.5 111t74.5 123q63 72 156 114.5t188 42.5q66 0 151.5 -26.5t162.5 -100.5q48 -55 73 -94q18 37 50 78q47 59 114.5 94t112 42.5t80.5 6.5q106 0 185.5 -42.5t121.5 -88.5q43 -47 75.5 -127.5t32.5 -189.5q0 -7 -1 -21.5t-1 -21.5l-677 -2 q0 -1 1.5 -14.5t2.5 -19t3.5 -21t5.5 -25t8.5 -25.5t11.5 -28.5t15.5 -27.5t20.5 -28q40 -46 99.5 -73t119.5 -27q43 0 84 15t68 34.5t52.5 47t35.5 42.5t20 31l117 -92q-68 -88 -106 -121q-56 -49 -131.5 -75.5t-151.5 -26.5q-25 0 -55.5 4.5t-77 16.5t-95 41t-85.5 71 q-34 38 -56 90q-27 -49 -55 -80q-40 -45 -91 -76t-100 -44t-82 -18t-61 -5q-67 0 -132.5 20.5t-100 41t-62.5 42.5q-24 20 -48 48t-51.5 71.5t-44.5 104.5t-17 128zM233 446q0 -56 21 -122q34 -86 110.5 -138.5t167.5 -50.5q52 0 99 17q23 9 46.5 22t51 38t48.5 56t35 78.5 t15 102.5q0 113 -61 192q-20 25 -46 48t-79.5 46t-112.5 23q-67 0 -120 -25q-27 -13 -53 -33t-56 -54t-48 -86t-18 -114zM1022 557h496q0 2 -3 14t-4.5 19t-6 20.5t-9.5 24t-13 24.5t-18 27q-76 94 -196 94q-48 0 -89.5 -16t-68 -41.5t-42 -46t-24.5 -39.5q-14 -30 -22 -80z " />
<glyph unicode="&#x178;" horiz-adv-x="1110" d="M0 1446h209l190 -328q32 -55 88 -157q31 -59 72 -142q10 19 29.5 58l29.5 59q36 68 80 139l213 371h199l-465 -805v-641h-184v651zM258 1690q0 47 35.5 81.5t83.5 34.5q47 0 82 -34.5t35 -83.5q-1 -51 -37 -84.5t-86 -30.5q-46 2 -79.5 36t-33.5 81zM614 1688 q0 51 34.5 84.5t84.5 33.5q23 -1 64 -18q55 -39 53 -100q0 -47 -33.5 -80t-81.5 -35q-50 -2 -85.5 32t-35.5 83z" />
<glyph unicode="&#x2c6;" horiz-adv-x="555" d="M-176 1090l282 258l275 -252l-90 -92l-187 163l-192 -166z" />
<glyph unicode="&#x2dc;" horiz-adv-x="555" d="M-242 1137q1 2 7 15.5t12.5 27t16.5 32t20 33.5q43 55 87 72q25 10 52 10q57 0 160 -59l20 -11q33 -20 48.5 -28.5t33.5 -14.5t35 -6q21 0 38 11.5t24.5 23t19.5 33.5l24 41l115 -57q-6 -11 -18 -34t-17 -32q-76 -121 -190 -121q-71 0 -162 57l-16 11q-78 47 -105 47 q-25 0 -40.5 -17.5t-37.5 -62.5l-12 -23z" />
<glyph unicode="&#x2000;" horiz-adv-x="954" />
<glyph unicode="&#x2001;" horiz-adv-x="1909" />
<glyph unicode="&#x2002;" horiz-adv-x="954" />
<glyph unicode="&#x2003;" horiz-adv-x="1909" />
<glyph unicode="&#x2004;" horiz-adv-x="636" />
<glyph unicode="&#x2005;" horiz-adv-x="477" />
<glyph unicode="&#x2006;" horiz-adv-x="318" />
<glyph unicode="&#x2007;" horiz-adv-x="318" />
<glyph unicode="&#x2008;" horiz-adv-x="238" />
<glyph unicode="&#x2009;" horiz-adv-x="381" />
<glyph unicode="&#x200a;" horiz-adv-x="106" />
<glyph unicode="&#x2010;" horiz-adv-x="681" d="M84 492v145h514v-145h-514z" />
<glyph unicode="&#x2011;" horiz-adv-x="681" d="M84 492v145h514v-145h-514z" />
<glyph unicode="&#x2012;" horiz-adv-x="681" d="M84 492v145h514v-145h-514z" />
<glyph unicode="&#x2013;" horiz-adv-x="1024" d="M84 492v147h856v-147h-856z" />
<glyph unicode="&#x2014;" horiz-adv-x="1366" d="M0 518v162h1366v-162h-1366z" />
<glyph unicode="&#x2018;" horiz-adv-x="425" d="M51 963l240 501l123 -53l-199 -512z" />
<glyph unicode="&#x2019;" horiz-adv-x="342" d="M80 1255v191h180v-119q-6 -105 -6 -108q-11 -100 -66 -207l-90 28q52 91 52 215h-70z" />
<glyph unicode="&#x201a;" horiz-adv-x="425" d="M12 -262l201 512l162 -64l-238 -501z" />
<glyph unicode="&#x201c;" horiz-adv-x="641" d="M27 1024l192 436l123 -37l-158 -452zM293 1020l194 440l123 -39l-157 -450z" />
<glyph unicode="&#x201d;" horiz-adv-x="641" d="M29 1010l159 450l158 -49l-194 -440zM297 1010l160 450l155 -51l-192 -438z" />
<glyph unicode="&#x201e;" horiz-adv-x="641" d="M29 -240l159 451l158 -49l-194 -438zM297 -240l160 453l155 -53l-192 -439z" />
<glyph unicode="&#x2022;" horiz-adv-x="681" d="M74 723q0 48 20 98q32 78 100 123t152 45q112 0 186 -76.5t76 -189.5q0 -58 -22 -113q-8 -18 -19 -35t-32 -39.5t-45.5 -39t-62.5 -28t-81 -11.5q-112 0 -192 76t-80 190z" />
<glyph unicode="&#x2026;" horiz-adv-x="2048" d="M225 104q0 22 8 43q14 32 44 52t67 20q47 0 80 -34t33 -81q0 -48 -33 -82t-82 -34q-50 0 -83.5 33.5t-33.5 82.5zM909 104q0 26 9 46q13 32 43 50.5t65 18.5q47 0 81 -34t34 -81q0 -48 -33.5 -82t-83.5 -34q-48 0 -81.5 33.5t-33.5 82.5zM1591 104q0 47 35 81t82 34 q49 0 82 -33.5t33 -81.5t-33 -82t-82 -34q-50 0 -83.5 33.5t-33.5 82.5z" />
<glyph unicode="&#x202f;" horiz-adv-x="381" />
<glyph unicode="&#x205f;" horiz-adv-x="477" />
<glyph unicode="&#x2122;" horiz-adv-x="1406" d="M33 1346v100h553v-100h-213v-580h-121v580h-219zM643 766v680h162l170 -537l166 537h162v-680h-117l4 422q0 70 6 137q-9 -34 -35 -115l-137 -444h-104l-140 446q-6 18 -17.5 55t-17.5 56q9 -67 9 -135l6 -422h-117z" />
<glyph unicode="&#xe000;" horiz-adv-x="890" d="M0 0v891h891v-891h-891z" />
<glyph unicode="&#xfb01;" horiz-adv-x="980" d="M33 748v145h131v367q2 78 15 130t54 93q48 43 109 57q32 8 88 8q63 0 143 -10v-172q-69 25 -108 25q-40 0 -78 -19q-28 -17 -41.5 -48.5t-13.5 -62.5v-63v-305h235v-145h-235v-748h-168v748h-131zM668 1272q0 52 35.5 86.5t87.5 34.5q51 0 85.5 -34.5t34.5 -86.5 t-34.5 -86.5t-85.5 -34.5t-87 35t-36 86zM705 0v893h172v-893h-172z" />
<glyph unicode="&#xfb02;" horiz-adv-x="980" d="M33 748v145h131v367q2 78 15 130t54 93q48 43 109 57q32 8 88 8q63 0 143 -10v-172q-69 25 -108 25q-40 0 -78 -19q-28 -17 -41.5 -48.5t-13.5 -62.5v-63v-305h235v-145h-235v-748h-168v748h-131zM707 0v1532h170v-1532h-170z" />
</font>
</defs>
</svg>
